<?xml version="1.0" encoding="utf-8" ?><svg xmlns="http://www.w3.org/2000/svg" xmlns:xlink="http://www.w3.org/1999/xlink" width="1344" height="768" viewBox="0 0 1344 768"><path d="M348.191 180.729C405.779 175.381 371.073 261.133 362.63 287.268C357.211 304.039 350.996 324.243 347.242 341.226C369.408 333.565 373.047 325.189 390.763 312.541C398.496 310.627 407.868 322.916 402.066 331.162C387.7 351.58 364.391 360.023 341.508 366.828C338.113 387.077 332.072 432.416 359.45 435.597C394.162 439.63 415.103 363.42 427.398 338.736C432.71 328.072 434.674 315.295 444.276 308.218C452.916 301.849 461.312 308.082 466.3 315.272C467.47 338.747 463.095 363.588 459.621 386.735C458.62 393.406 447.804 435.898 460.629 435.679C462.957 434.174 464.128 431.61 465.123 429.11C466.738 425.049 467.497 420.767 468.673 416.575C474.029 397.481 476.931 377.771 482.598 358.738C487.855 341.083 495.931 320.362 513.195 311.233C523.247 305.918 535.609 305.272 546.37 308.691C591.714 323.101 549.964 416.453 557.647 429.653C558.129 430.482 558.303 430.394 559.218 430.604C566.85 425.239 568.689 340.835 600.986 315.922C610.454 308.542 622.528 305.359 634.403 307.111C678.297 313.184 658.883 375.696 655.208 403.761C654.451 409.543 650.252 435.051 660.269 434.826C675.54 434.483 688.456 408.374 691.953 395.46C695.419 382.661 695.991 370.876 701.003 358.212C705.311 347.421 712.009 337.747 720.593 329.918C741.405 310.813 770.342 304.832 797.555 307.21C810.493 308.341 844.92 310.632 842.756 328.836C840.839 344.967 817.435 335.679 808.065 333.659C803.003 332.572 797.877 331.812 792.718 331.383C754.234 328.325 724.499 348.685 720.525 388.51C718.516 408.639 729.125 434.498 752.378 434.728C793.101 435.132 807.011 386.967 817.45 356.123C819.938 348.773 833.981 346.216 838.762 353.28C844.174 360.872 839.679 373.898 838.218 382.415C817.699 457.928 860.492 445.385 881.102 389.528C885.181 378.474 887.192 363.095 892.374 351.653C897.2 341.024 904.191 331.519 912.899 323.746C940.938 298.958 983.425 297.056 1009.05 326.427C1015.96 306.159 1016.45 283.552 1023.06 262.794C1026.43 252.235 1052.51 218.978 1047.07 209.849C1041.7 208.295 1036.7 217.485 1030.51 216.244C1028.55 213.723 1029.45 209.369 1030.5 206.134C1031.5 198.899 1046.74 180.159 1055.33 184.8C1067.22 191.223 1053.76 237.252 1051.79 246.641L1035.49 327.926C1030.43 352.545 1024.41 376.455 1022.9 401.83C1022.08 415.583 1024.96 444.233 1046.11 433.344C1059.41 426.502 1073.7 408.126 1076.81 393.657C1083.71 361.606 1092.09 332.521 1124.19 317.32C1151.76 303.754 1184.83 303.646 1214.24 312.269C1220.55 314.121 1232.6 321.402 1229.51 329.752C1227.67 334.304 1221.77 337.571 1217.47 339.525C1184.38 330.016 1145.05 321.769 1119.57 353.304C1108.96 366.422 1105.53 385.423 1107.3 401.899C1109.56 422.971 1123.95 438.005 1146.12 434.306C1171.7 430.125 1186.89 402.662 1195.08 380.559C1198.4 371.329 1198.89 362.498 1204.63 354.242C1207.39 348.745 1218 346.677 1222.4 351.458C1231.82 361.671 1222.3 386.481 1220.86 398.533C1219.75 407.778 1215.62 427.016 1224.06 433.021C1234.95 440.773 1249.57 427.509 1255.73 419.186C1261.29 410.964 1263.99 399.517 1274.42 396.472C1276.6 395.991 1280.23 396.715 1282.08 397.959C1293.04 405.328 1283.6 420.473 1279.28 428.041C1271.43 441.811 1256.81 455.423 1240.91 458.371C1213.39 463.473 1200.98 455.687 1194.95 428.993C1188.65 436.117 1182.14 443.328 1174.28 448.744C1160.44 458.448 1143.29 462.171 1126.67 459.074C1106.27 455.188 1097.28 444.108 1086.49 428.178C1070.79 448.801 1051.67 468.263 1021.32 456.648C1005.4 450.555 1002.88 434.597 997.578 420.206C986.487 431.736 984.677 441.543 968.432 450.844C947.447 462.859 924.765 464.057 904.927 448.165C897.641 442.328 893.768 435.576 888.961 427.585C879.79 440.626 869.898 453.201 853.929 457.69C826.875 465.294 815.669 454.999 808.733 430.045C803.447 435.57 795.882 443.835 789.842 448.035C775.871 457.808 758.562 461.56 741.799 458.449C722.343 454.918 712.438 444.907 701.769 429.601C696.504 437.794 690.861 446 682.863 451.749C674.04 458.091 662.861 460.074 652.23 458.277C645.266 457.1 639.238 453.779 635.186 447.904C620.829 427.089 631.958 393.228 636.204 370.604C637.947 361.319 641.124 343.718 635.098 335.599C633.488 333.428 631.351 332.096 628.696 331.694C624.263 331.022 619.402 333.121 615.868 335.637C584.644 357.869 596.535 435.26 569.353 455.242C564.5 458.809 558.751 459.806 552.879 458.77C547.799 457.873 543.668 455.586 540.721 451.294C527.135 431.512 538.086 395.195 541.962 373.149C543.859 362.361 546.568 344.351 539.746 334.954C538.335 333.01 536.531 331.953 534.162 331.623C531.334 331.229 527.804 332.239 525.267 333.447C495.077 347.814 501.285 431.207 473.533 453.044C467.617 457.699 460.587 459.937 453.087 458.962C445.805 458.015 438.696 454.505 434.286 448.516C421.413 431.033 434.856 395.439 437.701 375.946C423.67 400.068 418.513 427.246 395.704 446.439C376.529 462.575 342.181 464.483 325.402 444.023C309.338 424.435 312.995 392.345 315.409 368.903C309.401 368.321 302.743 368.166 296.539 367.825C235.217 364.454 186.089 310.192 123.323 319.841C107.31 322.303 92.5256 329.191 83.082 342.518C67.9767 363.836 73.3308 397.691 95.1002 412.534C105.598 419.732 118.664 423.158 131.119 420.477C166.22 412.921 190.232 376.175 209.097 348.665C215.09 350.549 224.858 355.472 230.77 358.363C229.119 361.692 226.704 365.444 224.671 368.562C202.344 402.809 167.25 444.442 122.562 444.498C103.5 444.666 85.187 437.085 71.8186 423.493C58.1628 409.761 50.5471 391.148 50.6597 371.78C50.6588 351.905 58.6018 332.854 72.7206 318.869C83.856 307.805 98.4374 301.471 113.53 298.481C173.958 286.507 219.23 323.563 273.568 340.589C290.014 345.743 303.05 345.931 320.028 345.946C325.144 328.306 328.773 312.306 334.313 292.873C342.218 265.273 358.137 235.423 355.154 206.218C354.739 202.161 349.331 201.58 346.047 202.857C298.626 221.303 271.61 279.697 250.475 322.486C244.829 320.447 234.449 315.266 229.268 312.446C244.385 283.534 259.448 253.851 278.934 227.64C298.008 201.985 315.985 185.495 348.191 180.729ZM946.471 433.159C984.923 426.291 1030.63 325.885 961.516 329.703C945.785 332.049 933.219 337.109 923.627 350.477C912.528 365.946 908.354 387.136 911.316 405.813C914.563 426.277 926.427 435.242 946.471 433.159Z"/><path d="M639.05 513.621C656.634 511.578 672.523 524.234 674.471 541.833C676.418 559.431 663.681 575.257 646.076 577.111C628.604 578.951 612.928 566.327 610.995 548.861C609.062 531.395 621.599 515.647 639.05 513.621ZM645.801 568.772C674.991 556.589 664.25 519.577 640.249 521.92C632.878 524.596 627.869 527.291 624.269 534.909C621.456 540.947 621.133 547.849 623.37 554.123C625.374 559.787 629.624 564.374 635.118 566.803C638.439 568.284 642.178 568.871 645.801 568.772Z"/><path d="M846.434 513.46C871.865 512.26 879.195 525.739 880.703 548.752C864.159 549.129 846.139 548.78 829.484 548.767C836.746 567.842 850.033 576.405 866.486 560.613C870.245 557.439 874.432 558.226 879.076 558.592C872.56 570.765 863.627 578.354 849.113 577.909C825.295 577.18 811.738 548.051 823.358 528.289C828.569 519.426 836.93 515.801 846.434 513.46ZM851.23 540.248L870.712 540.242C865.704 527.065 863.586 523.729 849.156 521.864C843.951 523.47 829.172 530.203 829.767 537.004C832.327 542.242 845.985 540.441 851.23 540.248Z"/><path d="M518.235 495.119C542.471 493.449 551.068 498.161 562.623 519.544C559.196 519.758 555.541 519.779 552.092 519.86C543.627 507.636 535.554 500.738 519.591 503.952C511.961 505.464 505.276 510.023 501.082 516.575C485.421 540.667 503.236 574.952 536.215 566.914C545.058 562.583 546.717 560.453 552.155 552.323C555.384 552.137 559.389 552.351 562.678 552.438C558.416 563.344 548.362 573.082 536.849 576.121C499.085 586.091 472.432 546.279 490.727 513.598C496.69 502.947 506.719 497.955 518.235 495.119Z"/><path d="M752.948 489.723L762.567 489.719C763.022 500.064 762.969 511.505 763.139 521.939C783.963 504.655 804.839 513.509 807.684 540.018C809.066 552.901 808.503 563.838 807.247 576.725L797.478 576.778C797.271 564.704 797.404 552.235 797.377 540.129C796.593 530.498 790.584 522.247 780.251 522.291C776.216 522.27 772.354 523.925 769.586 526.862C759.898 537.017 762.247 563.477 762.596 576.91L752.829 576.923C752.326 549.252 752.37 517.375 752.948 489.723Z"/><path d="M709.172 513.468C727.722 512.882 733.896 517.903 742.481 533.567L731.786 533.61C712.132 507.299 684.053 531.102 695.697 556.674C701.559 569.549 712.979 571.072 725.07 565.146C728.072 562.341 729.692 559.96 732.095 556.69L742.623 556.722C738.328 566.802 731.201 573.911 720.488 576.662C691.205 584.184 672.528 551.072 687.191 527.212C692.315 518.875 700.013 515.555 709.172 513.468Z"/><path d="M899.409 492.324L909.508 492.381L909.654 513.41L922.584 513.457L922.621 521.692L909.648 521.925C909.44 540.172 909.83 558.478 909.635 576.772C906.453 576.951 902.662 576.91 899.426 576.962C898.961 559.194 899.202 540.302 899.18 522.446L886.724 521.77L886.601 513.41L899.175 513.34C899.307 506.335 899.385 499.329 899.409 492.324Z"/><path d="M600.821 513.408C603.328 513.211 605.488 512.879 607.4 514.493C608.685 516.473 608.341 519.479 608.305 521.942C601.73 523.352 596.916 524.195 591.993 529.436C582.233 539.826 584.562 563.613 584.933 577.296C582.168 577.328 577.057 577.7 574.977 576.135C574.828 555.507 574.813 534.879 574.931 514.251L584.613 514.078C584.753 517.224 585.227 520.806 585.569 523.971C591.175 517.699 593.098 516.115 600.821 513.408Z"/></svg>