<?xml version="1.0" encoding="utf-8" ?><svg xmlns="http://www.w3.org/2000/svg" xmlns:xlink="http://www.w3.org/1999/xlink" width="753" height="430" viewBox="0 0 753 430"><path fill="#FCC2C4" transform="scale(0.559896 0.559896)" d="M346.406 180.773C348.918 180.14 356.516 180.435 359.042 181.118C403.966 192.876 368.218 266.696 360.395 295.408C356.326 310.343 350.947 325.285 347.167 341.196C357.192 337.841 362.577 335.2 371.145 328.986C378.044 323.982 387.952 308.804 396.556 313.666C402.632 317.101 406.709 324.56 402.372 330.946C388.715 351.053 363.982 360.506 341.584 366.998C339.412 379.846 337.414 393.101 338.525 406.156C339.28 415.029 341.623 424.888 348.794 430.814C353.155 434.418 359.229 436.425 364.875 435.859C394.19 432.923 419.535 357.841 429.552 333.688C432.444 326.714 435.218 316.931 440.093 311.17C442.819 307.948 447.452 306.227 451.577 305.947C455.46 305.684 458.868 306.854 461.747 309.494C463.872 311.444 465.335 314.094 465.984 316.896C469.548 332.268 460.452 383.451 457.542 401.482C456.249 409.489 453.962 418.589 454.476 426.665C454.682 429.895 455.204 433.158 457.76 435.388C459.93 436.032 458.998 436.013 461.349 435.246C464.449 432.561 465.125 428.548 466.385 424.85C477.507 392.196 480.152 327.88 514.364 310.588C524.034 305.732 535.237 304.919 545.507 308.328C592.724 324.204 550.044 414.054 558.428 430.622C563.215 430.382 567.886 392.235 569.174 386.318C574.342 362.204 580.968 336.771 598.238 318.222C608.492 304.982 641.678 301.643 653.09 315.814C674.874 342.862 654.088 391.447 653.075 422.801C652.91 427.913 656.657 435.928 662.107 434.502C679.871 429.856 689.4 406.57 693.496 390.359C695.865 380.152 696.299 372.016 699.426 362.565C702.461 353.466 707.12 344.993 713.177 337.557C735.239 310.249 771.615 303.202 804.842 307.982C815.948 309.58 842.634 310.974 843.162 326.324C843.745 343.314 826.068 338.613 816.027 335.76C789.044 328.632 759.82 328.012 738.199 348.733C713.449 372.453 710.811 434.991 756.294 434.942C781.019 434.916 800.008 404.652 808.081 384.213C812.259 373.636 814.365 349.374 829.364 347.931C847.235 349.094 839.917 374.049 837.728 385.337C835.064 399.07 828.597 420.539 837.433 433.22C854.483 446.6 877.197 400.769 880.735 389.876C885.413 375.471 885.668 367.078 891.381 353.79C906.283 318.033 945.344 295.185 983.405 308.264C995.303 312.352 1000.39 316.63 1008.81 325.725C1016.53 306.061 1016.5 282.981 1023.02 262.624C1026.72 251.065 1052.03 219.524 1046.96 209.209C1041.21 208.544 1034.82 220.113 1029.89 216.71C1024.38 203.958 1049.31 174.988 1057.3 186.223C1065.39 197.6 1055.25 231.301 1052.33 245.567L1035.01 332.516C1030.33 355.322 1024.71 376.865 1023.15 400.629C1021.72 422.198 1027.03 447.969 1053.87 428.371C1065.02 420.231 1074.01 404.316 1077.59 391.187C1080.39 380.877 1081.68 370.853 1085.73 360.502C1089.91 349.651 1096.22 339.747 1104.28 331.373C1127.8 307.414 1166.17 302.907 1197.95 308.517C1206.93 310.102 1218.51 311.604 1225.36 318.024C1230.42 322.764 1230.86 330.141 1225.67 335.062C1223.12 337.476 1219.74 338.825 1216.23 338.836C1213.78 338.821 1204.37 336.31 1201.9 335.537C1156.12 321.173 1107.48 339.441 1106.89 393.076C1106.69 411.091 1113.23 430.417 1133.17 434.223C1164.8 439.689 1185.78 406.449 1195.25 380.461C1199 370.155 1203.25 337.78 1224.2 352.544C1229.51 358.047 1225.33 381.046 1223.39 386.948C1216.2 408.796 1214.92 457.781 1250.99 425.09C1254.79 420.709 1258.84 414.932 1261.35 409.452C1264.93 401.656 1273.14 392.822 1282.54 397.943C1293.45 403.883 1283.34 421.31 1278.85 428.923C1270.38 442.973 1257.39 454.907 1240.88 458.249C1213.86 463.717 1200.91 456.362 1194.88 429.674C1187.33 438.051 1181 444.869 1171.29 450.838C1157.08 459.709 1139.88 462.463 1123.6 458.476C1106.19 454.245 1095.41 443.581 1086.34 428.671C1071.37 449.523 1048.62 469.385 1019.39 456.183C1005.52 449.92 1001.75 434.156 997.807 420.535C996.169 422.388 993.251 426.06 991.909 428.129C972.386 458.236 929.908 473.249 901.592 445.213C896.193 439.867 892.894 434.468 888.815 427.825C888.122 428.853 887.416 429.872 886.696 430.881C876.287 445.503 866.248 455.936 847.61 458.998C824.576 462.782 812.277 451.869 808.835 429.897C802.783 435.866 797.806 442.632 790.673 447.649C776.516 457.637 758.972 461.591 741.9 458.641C722.875 455.204 712.049 444.894 701.518 429.69C697.595 436.277 692.819 443.61 687.096 448.761C678.961 456.122 668.181 459.852 657.238 459.092C650.172 458.65 640.436 455.511 636.165 449.53C617.612 423.549 636.677 384.694 638.237 356.264C638.597 349.695 638.795 340.272 634.657 335.038C632.971 332.906 629.241 331.953 626.864 331.985C595.436 332.404 591.594 406.186 584.696 428.133C581.792 437.374 578.17 447.007 571.226 453.826C567.161 457.816 562.383 459.56 556.972 459.471C552.403 459.396 543.713 455.987 541.229 452.338C524.543 427.825 542.614 385.106 543.59 357.626C543.94 350.829 544.541 340.501 539.433 335.177C532.221 327.661 519.164 336.258 515.133 343.009C499.088 371.053 498.532 400.207 487.976 431.299C480.207 454.178 457.859 470.344 435.884 450.9C426.074 442.22 428.916 415.367 431.208 403.715C432.635 396.457 435.983 387.135 436.598 378.86L436.648 378.12C431.11 386.183 427.068 399.497 422.593 408.816C408.784 437.575 389.212 463.3 353.552 458.601C307.834 452.576 310.897 403.155 315.709 369.012C296.98 368.879 282.01 366.983 263.993 361.708C217.019 347.953 174.821 311.718 123.561 319.952C107.862 322.426 92.6484 329.153 83.1379 342.425C67.7967 363.834 73.526 397.359 95.1079 412.405C105.548 419.798 118.526 422.673 131.111 420.38C164.455 414.109 191.335 374.675 209.066 348.645C216.084 351.272 224.531 355.087 231.55 358.033C207.76 395.251 174.508 441.814 125.314 444.667C105.391 445.823 87.4036 438.278 72.8274 424.751C43.3862 397.431 43.8897 349.488 70.7769 320.586C88.977 301.059 116.228 295.391 141.953 296.266C190.797 297.927 231.212 328.124 276.89 341.527C292.093 345.989 304.33 346.259 319.92 345.835C325.084 328.515 328.624 312.975 334.346 293.16C342.328 265.115 357.103 236.399 355.998 206.736C355.798 201.383 346.052 202.992 342.876 204.305C299.756 222.127 269.474 282.588 250.449 322.654C243.218 319.593 236.102 316.271 229.114 312.692C245.561 280.42 262.314 249.047 284.549 220.217C300.086 200.072 320.508 184.033 346.406 180.773ZM950.551 432.137C971.819 422.8 983.184 405.521 991.611 384.518C998.785 366.64 1003.3 340.793 980.493 332.41C974.376 330.18 964.717 329.429 958.122 330.373C922.512 334.964 907.233 371.727 911.21 403.936C913.754 424.548 925.323 436.336 946.735 432.925C948.017 432.712 949.29 432.449 950.551 432.137Z"/><path fill="#CE9521" transform="scale(0.559896 0.559896)" d="M637.486 513.651C655.038 510.734 671.631 522.601 674.55 540.157C677.468 557.714 665.606 574.313 648.055 577.234C630.5 580.156 613.901 568.289 610.982 550.729C608.064 533.169 619.93 516.568 637.486 513.651ZM645.22 568.718C652.283 566.582 656.75 564.043 660.358 557.167C663.563 550.97 664.15 543.747 661.988 537.113C659.075 528.377 651.227 521.784 641.8 521.892C634.67 523.736 629.369 526.767 625.528 533.349C622.272 538.988 621.386 545.688 623.062 551.981C625.857 562.444 634.625 568.409 645.22 568.718Z"/><path fill="#CE9521" transform="scale(0.559896 0.559896)" d="M844.581 513.456C871.542 512.098 879.716 523.687 880.98 549.165C864.014 549.289 847.087 548.988 830.115 549.29C837.078 568.489 850.873 575.662 866.714 560.351C870.64 557.322 874.64 558.204 879.366 558.678L878.907 559.618C865.365 587.019 828.324 582.841 820.111 554.52C817.574 545.83 818.651 536.483 823.099 528.599C828.182 519.702 835.137 515.955 844.581 513.456ZM853.904 540.149L870.397 540.137C865.943 527.451 861.941 522.152 847.526 522.551C842.606 524.291 829.072 531.492 829.923 537.805C833.68 541.793 848.051 540.26 853.904 540.149Z"/><path fill="#CE9521" transform="scale(0.559896 0.559896)" d="M518.377 495.177C541.132 492.73 553.453 499.334 563.101 520.099C559.601 520.363 555.663 520.194 552.122 520.132C544.896 508.37 535.399 501.542 521.09 503.977C513.254 505.254 506.268 509.647 501.72 516.156C499.971 518.672 497.906 522.601 497.317 525.579C491.746 553.739 508.051 572.417 535.896 566.888C544.415 563.632 547.362 559.41 551.943 552.083L563.093 552.249C561.882 554.914 560.624 557.45 559.069 559.937C553.708 568.52 545.159 574.622 535.301 576.902C524.52 579.284 512.171 577.412 502.905 571.273C493.978 565.342 487.861 556.021 485.97 545.469C481.495 521.344 492.866 499.671 518.377 495.177Z"/><path fill="#CE9521" transform="scale(0.559896 0.559896)" d="M752.658 489.55L763.055 489.585L763.281 521.735C769.134 516.59 776.662 512.663 784.655 513.025C814.092 514.357 808.575 556.718 807.946 577.303L797.371 577.215L797.284 540.69C795.653 524.45 781.122 516.642 769.473 527.457C759.813 536.425 762.618 565.22 763.213 577.167L752.75 577.345L752.658 489.55Z"/><path fill="#CE9521" transform="scale(0.559896 0.559896)" d="M708.725 513.447C726.956 512.744 734.695 516.932 742.544 533.953C739.025 534.034 735.321 533.941 731.786 533.909C728.233 529.085 725.282 525.259 719.184 523.336C714.427 521.853 709.27 522.371 704.903 524.771C680.134 538.091 697.079 581.177 725.369 564.88C728.065 562.317 729.696 559.639 731.757 556.577L743.401 556.559C742.978 557.426 742.525 558.278 742.043 559.113C737.118 567.741 730.496 574.534 720.625 577.151C712.832 579.219 704.534 578.07 697.596 573.962C674.184 560.081 676.831 522.105 703.987 514.635C705.566 514.201 707.127 513.811 708.725 513.447Z"/><path fill="#CE9521" transform="scale(0.559896 0.559896)" d="M899.096 492.221L910.104 492.197L910.168 513.303L923.212 513.419L923.288 522.429L910.128 522.436L910.188 577.064C906.721 577.305 902.717 577.342 899.2 577.461C898.987 559.141 898.934 540.819 899.041 522.498L886.564 522.384L886.513 513.311L899.033 513.275L899.096 492.221Z"/><path fill="#CE9521" transform="scale(0.559896 0.559896)" d="M600.635 513.506C603.727 513.182 605.088 512.772 607.636 514.074C608.881 516.09 608.464 519.654 608.39 522.146C601.781 523.526 596.913 524.544 592.006 529.803C582.232 540.278 584.963 563.827 585.354 577.538C581.802 577.598 577.989 577.99 574.697 576.766C573.885 557.046 574.718 534.144 574.566 514.057L584.961 514.125L585.266 523.713C591.4 517.887 592.612 516.358 600.635 513.506Z"/></svg>