<?xml version="1.0" encoding="utf-8" ?><svg xmlns="http://www.w3.org/2000/svg" xmlns:xlink="http://www.w3.org/1999/xlink" width="1344" height="768" viewBox="0 0 1344 768"><path d="M0 0L1344 0L1344 768L0 768L0 0Z"/><path fill="white" d="M346.894 180.732C409.208 176.674 369.186 264.982 360.727 294.415C356.125 310.428 351.271 324.848 347.255 341.17C368.003 334.845 373.592 325.066 390.129 312.767C393.74 310.082 402.243 316.665 403.498 321.414C405.703 329.761 399.188 335.349 393.746 340.781C379.21 354.943 360.661 361.405 341.647 366.919C338.822 384.263 334.895 408.745 344.052 424.698C351.607 437.86 369.3 439.75 379.945 428.815C404.525 403.566 414.833 366.747 428.971 335.183C432.662 326.943 436.123 313.58 443.626 308.189C452.386 302.922 461.501 307.242 466.424 315.127C467.238 342.537 462.575 370.657 457.91 397.551C456.412 406.19 450.41 431.12 459.099 435.876C465.668 435.063 466.811 422.527 468.62 416.683C479.989 378.967 483.518 297.448 541.748 307.35C577.446 313.421 568.096 365.16 562.942 389.565C561.31 397.295 554.857 425.666 558.064 430.638L559.089 430.785C562.443 428.356 563.423 418.815 564.267 414.696C571.389 379.913 578.741 307.959 625.859 306.784C686.964 305.259 654.028 387.909 653.651 421.731C653.506 438.735 666.048 437.223 675.095 426.778C683.97 416.37 692.178 400.013 694.178 386.374C697.168 365.994 701.035 351.508 715.095 335.533C730.632 317.88 754.708 307.736 778.353 306.942C795.996 306.349 824.298 307.64 839.673 317.97C842.433 320.312 842.691 323.213 842.865 326.456C843.528 338.866 832.515 339.858 823.116 337.382C817.524 335.908 811.083 334.313 805.332 333.22C798.603 331.902 791.768 331.192 784.911 331.098C746.601 330.954 721.176 356.341 720.47 394.515C720.088 415.215 733.454 435.869 755.957 434.844C782.998 433.613 799.905 404.919 808.638 382.462C812.3 373.67 813.29 359.384 820.271 352.521C828.062 344.862 842.493 349.708 841.663 361.921C840.477 379.374 834.395 394.157 833.076 411.775C832.482 419.72 832.535 434.328 844.155 435.493C860.001 435.078 876.979 401.54 881.439 388.892C885.717 376.762 886.171 365.551 891.434 353.429C895.961 343.037 902.52 333.657 910.726 325.838C933.548 304.176 969.779 296.431 996.957 315.175C1001.64 318.402 1005.15 322.185 1009.03 326.304C1016.01 305.762 1016.41 283.363 1023.05 262.543C1026.6 251.419 1053.21 218.838 1046.89 209.215C1040.71 208.651 1036.7 217.658 1030.64 216.959C1024.65 210.098 1039.2 187.571 1047.62 185.07C1057.65 182.096 1060.62 188.236 1060.47 196.466C1060.18 212.501 1055.64 228.227 1052.46 243.776L1035.34 329.642C1029.65 357.627 1021.79 386.329 1023.57 415.005C1024.37 427.736 1031.08 440.741 1045.78 433.477C1060.63 426.146 1072.21 409.335 1076.87 393.783C1080.01 383.326 1081.21 371.899 1085.35 361.639C1103.86 307.296 1167.94 297.596 1216.48 312.886C1222.97 314.983 1232.36 322.616 1229.09 330.384C1227.14 335.021 1221.55 337.926 1217.19 339.617C1202.74 335.474 1188.52 331.407 1173.54 330.897C1135.19 329.592 1107.96 353.268 1107.13 392.176C1106.68 413.41 1115.3 434.587 1139.79 434.792C1169.12 435.037 1186.89 403.17 1195.66 379.345C1200.05 367.703 1199.58 347.698 1216.56 349.008C1219.53 349.245 1222.26 350.695 1224.12 353.016C1234.64 366.098 1209.77 415.209 1222.92 431.48C1230.77 441.188 1244.64 431.003 1251.06 425.132C1255.24 420.781 1260.52 411.705 1263.55 405.306C1268.46 394.903 1283.11 392.191 1286.99 404.395C1289.32 411.712 1281.67 423.696 1277.75 430.704C1264.81 453.853 1233.12 467.846 1208.59 455.062C1200.28 450.699 1196.83 438.018 1194.89 428.96C1188.7 436.424 1181.51 444.32 1173.4 449.728C1159.29 458.964 1142.09 462.243 1125.56 458.85C1105.51 454.725 1096.89 444.112 1086.43 428.124C1079.19 438.526 1069.58 450.544 1057.85 455.538C1040.28 463.023 1018.91 462.152 1007.26 445.03C1001.66 436.806 1001.44 428.966 997.572 420.312C995.815 422.055 991.821 427.302 990.448 429.501C973.006 457.43 934.148 470.883 906.264 449.547C898.23 443.4 894.023 436.16 888.912 427.647C879.774 441.402 869.549 454.121 852.71 458.087C825.71 464.446 814.989 454.55 808.74 429.948C802.921 436.137 796.046 443.996 789.171 448.698C768.3 462.972 737.705 463.838 717.462 447.899C710.673 442.553 706.69 436.64 701.834 429.6C696.465 437.965 692.31 443.988 684.864 450.676C673.366 461.004 645.409 463.271 636.001 449.091C619.279 423.884 634.426 389.064 637.573 361.889C638.574 353.247 639.753 342.329 634.516 334.741C633.163 332.83 630.447 331.658 628.425 331.634C594.801 331.236 591.618 406.702 584.173 430.162C581.52 438.636 577.661 448.679 570.691 454.478C562.495 461.299 547.932 461.159 541.22 452.202C536.629 446.075 535.223 438.859 534.635 431.436C532.832 408.644 540.783 386.258 543.253 363.781C544.174 355.454 545.086 340.893 539.343 334.222C538.041 332.698 536.18 331.763 534.18 331.631C496.724 329.096 500.208 436.75 473.884 453.012C466.551 457.541 462.411 460.404 453.452 459.105C413.228 453.273 433.82 402.614 437.111 378.172C431.38 385.508 429.567 392.786 425.88 401.166C418.633 417.849 410.343 433.6 396.778 445.925C377.971 463.014 342.287 464.687 325.401 444.097C309.209 424.352 313.01 392.566 315.365 368.85C294.639 368.566 281.761 366.929 261.764 360.732C215.007 346.243 174.412 311.737 122.783 320.053C91.5767 325.08 70.2263 347.171 75.6558 380.468C77.7857 393.53 84.8656 405.313 95.8962 412.928C106.375 420.167 119.338 422.853 131.83 420.375C165.041 413.842 191.732 374.348 209.219 348.341L231.023 358.329C209.192 395.725 170.711 444.084 123.269 444.693C104.331 444.985 86.0659 437.67 72.563 424.385C58.6978 410.833 50.81 392.309 50.6483 372.919C50.3517 352.973 58.0826 333.744 72.1029 319.557C90.0848 301.282 114.427 295.976 139.333 296.198C188.67 296.637 229.506 327.649 275.477 341.061C290.937 345.571 304.058 346.033 319.908 345.87C325.18 328.92 329.472 309.827 334.342 292.589C336.569 284.703 372.955 193.567 346.441 202.809C300.111 218.959 271.734 281.321 250.401 322.785C243.026 319.398 236.305 316.28 229.105 312.497C243.626 285.442 256.611 259.006 274.474 233.803C293.063 207.575 313.536 185.121 346.894 180.732Z"/><path d="M956.97 330.37C994.809 325.459 1004.82 351.005 992.388 382.169C983.577 404.255 972.979 422.048 950.594 432.226C949.441 432.565 948.266 432.825 947.078 433.006C925.876 436.377 914.266 425.284 911.408 404.735C906.975 372.863 921.81 335.622 956.97 330.37Z"/><path fill="white" d="M639.393 513.592C656.967 511.729 672.723 524.471 674.581 542.05C676.44 559.628 663.698 575.385 646.123 577.241C628.553 579.095 612.807 566.355 610.948 548.781C609.09 531.208 621.824 515.455 639.393 513.592Z"/><path d="M640.369 521.862C664.783 519.512 674.971 558.603 645.588 568.845C641.682 569.034 637.793 568.222 634.289 566.486C628.785 563.752 624.969 558.97 623.113 553.148C621.085 546.796 621.664 539.899 624.723 533.975C628.387 526.925 633.178 524.193 640.369 521.862Z"/><path fill="white" d="M845.948 513.444C846.7 513.409 847.453 513.382 848.205 513.363C872.113 512.772 880.333 526.949 880.772 548.816L829.454 548.867C835.781 565.911 849.388 577.096 865.051 562.109C865.654 561.442 866.292 560.807 866.961 560.205C870.071 557.458 874.871 558.304 878.988 558.515C878.31 560.113 877.431 561.695 876.539 563.183C872.481 570.058 865.805 574.991 858.043 576.851C817.704 586.418 801.033 522.763 845.948 513.444Z"/><path d="M849.081 522.009C862.895 522.819 866.646 527.557 870.728 540.238L852.141 540.263C846.166 540.322 833.985 541.776 830.213 538.278C828.484 530.683 842.665 523.344 849.081 522.009Z"/><path fill="white" d="M517.983 495.084C540.662 492.956 552.961 498.868 562.844 519.805L551.961 519.901C545.073 508.01 535.699 501.657 521.527 503.611C513.878 504.589 506.952 508.626 502.332 514.801C491.229 529.536 494.081 553.38 509.869 563.794C517.952 569.125 525.562 569.008 534.659 567.46C544.255 563.836 546.926 560.465 552.195 552.291L562.741 552.281C558.105 563.834 548.447 573.392 536.232 576.484C525.186 579.233 513.5 577.442 503.785 571.509C494.951 566.072 488.701 557.282 486.465 547.151C480.873 522.459 492.303 500.696 517.983 495.084Z"/><path fill="white" d="M752.841 489.677L762.864 489.675L763.148 522.137C768.694 517.023 776.207 512.688 784.002 513.011C814.165 514.26 808.262 556.188 807.839 577.02L797.329 577.029L797.341 540.062C797.303 535.4 795.688 530.726 792.4 527.351C789.202 524.026 784.771 522.174 780.16 522.234C757.843 522.41 762.564 561.93 762.853 577.014L752.744 577.124L752.841 489.677Z"/><path fill="white" d="M708.745 513.465C727.137 512.474 734.246 517.602 742.512 533.62L731.7 533.662C724.776 523.483 714.443 518.227 703.391 525.008C681.041 538.721 697.496 581.907 725.588 564.738C728.67 561.694 729.549 560.23 731.87 556.663L742.866 556.652C741.975 558.562 740.981 560.423 739.889 562.226C735.39 569.608 728.823 574.79 720.193 576.866C690.959 583.901 672.627 551.053 687.125 527.207C692.022 519.152 699.643 515.501 708.745 513.465Z"/><path fill="white" d="M899.361 492.283L909.638 492.257L909.766 513.406L922.979 513.387L923.009 521.866L909.606 521.916L909.832 576.886C906.858 577.119 902.302 577.069 899.199 577.138L899.161 522.216C895.209 522.052 890.648 522.11 886.643 522.076L886.657 513.383L899.172 513.338L899.361 492.283Z"/><path fill="white" d="M601.545 513.418C604.776 513.15 605.124 512.776 607.478 514.152C608.634 516.146 608.242 519.644 608.172 522.068C601.619 523.13 596.873 524.166 592.016 529.13C582.248 539.115 584.723 563.561 585.116 577.242C581.88 577.38 577.818 577.767 574.896 576.62L574.755 514.056L584.613 514.047C584.921 517.506 585.195 520.968 585.434 524.432C591.05 517.81 593.046 515.851 601.545 513.418Z"/></svg>