<?xml version="1.0" encoding="utf-8" ?><svg xmlns="http://www.w3.org/2000/svg" xmlns:xlink="http://www.w3.org/1999/xlink" width="753" height="430" viewBox="0 0 753 430"><path fill="white" transform="scale(0.559896 0.559896)" d="M0 0L1344 0L1344 768L0 768L0 0Z"/><path fill="#FBC2C5" transform="scale(0.559896 0.559896)" d="M345.133 180.733C377.902 177.44 385.132 201.628 379.967 228.31C372.59 266.428 355.998 302.559 347.402 340.808C356.813 338.668 365.512 333.945 372.847 327.63C377.302 324.129 385.687 312.909 391.469 312.513C400.605 311.888 407.661 323.648 402.12 331.343C387.423 351.748 364.868 360.621 341.728 367.218C338.605 387.905 331.118 427.479 357.758 435.278C366.273 437.771 377.154 432.889 382.68 426.523C405.432 400.31 415.957 364.485 429.843 333.147C433.364 326.427 436.481 311.94 443.373 308.383C452.771 303.531 461.475 305.942 466.469 315.12C467.131 335.414 464.272 358.876 461.242 379.205C458.966 394.479 454.368 413.174 454.358 428.785C454.356 431.202 455.944 434.024 457.988 435.578C459.561 435.963 460.343 436.255 461.813 435.268C466.794 431.922 475 388.371 476.993 380.254C482.754 356.792 489.907 324.956 512.305 311.655C521.524 306.181 532.932 304.999 543.252 307.645C594.168 320.704 549.902 417.138 558.044 430.882L559.202 431.131C563.269 427.056 567.459 395.279 569.249 387.206C574.977 358.953 587.417 308.159 623.898 306.752C691.007 304.164 650.617 393.46 653.799 428.53C655.592 431.439 658.339 434.821 661.937 434.601C676.44 433.717 688.681 406.319 692.346 394.615C696.008 382.924 695.086 371.124 700.231 359.697C704.909 348.371 711.323 338.706 720.164 330.202C737.56 313.467 764.548 305.729 788.399 306.617C803.463 308.027 827.633 308.467 839.871 318.02C844.397 321.553 844.053 332.699 839.341 336.558C831.202 343.225 817.72 335.165 808.552 333.957C802.101 333.106 796.436 331.534 789.92 331.358C772.196 330.268 754.246 334.56 740.666 346.454C728.301 357.392 721.668 374.264 720.486 390.388C718.933 411.572 730.046 434.082 753.619 434.888C781.292 435.834 799.896 405.156 808.649 382.534C812.492 372.604 812.787 360.078 820.217 352.419C825.263 347.717 833.858 347.05 838.442 352.49C844.519 359.701 840.742 369.908 839.205 378.081C836.982 389.907 833.757 401.463 832.998 413.501C832.592 420.01 833.337 427.752 837.683 432.982C839.355 434.939 842.217 435.216 844.588 435.404C859.149 436.555 877.8 399.553 881.532 388.374C884.994 378.003 885.443 367.538 890.854 354.784C895.276 344.393 901.648 334.947 909.626 326.956C931.477 305.109 965.54 297.012 993.429 312.649C999.246 315.911 1004.25 321.339 1008.91 326.046C1015.91 307.192 1016.47 282.852 1022.68 263.215C1026.14 252.28 1054.01 217.426 1046.6 208.783C1041.05 208.522 1035.93 218.121 1030.61 218.103L1029.57 217.043C1027 205.395 1038.61 188.085 1049.55 184.266C1058.68 181.075 1060.91 192.322 1060.62 198.515C1059.92 213.63 1055.59 228.716 1052.59 243.528L1034.04 336.868C1029.05 362.178 1019.45 397.356 1024.74 423.141C1026.5 431.695 1034.64 438.09 1044.36 434.101C1060.85 427.332 1073.01 407.573 1078.01 390.874C1083.98 353.669 1098.06 325.536 1136.15 312.086C1160.59 303.458 1195.78 304.927 1220.58 314.275C1223.73 315.466 1227.85 319.761 1228.74 323.208C1230.81 332.578 1225.28 337.391 1217.24 339.759C1203.91 336.31 1192.32 332.541 1178.26 331.282C1156.15 329.277 1132.03 336.262 1118.53 355.008C1101.41 378.484 1100.08 432.866 1138.5 434.778C1172.17 436.455 1193.18 393.402 1199.59 365.753C1200.33 362.532 1201.14 359.066 1202.7 356.162C1206.97 348.181 1218.84 346.316 1224.8 353.303C1230.29 360.918 1225.8 370.042 1224.97 378.088C1223.59 391.464 1210.03 431.447 1230.02 435.466C1236.1 436.689 1245.21 430.429 1249.98 426.372C1252.86 423.074 1254.37 421.289 1256.82 417.567C1261.02 411.402 1264.41 399.43 1272.17 396.864C1277.96 394.955 1285.76 397.565 1287.13 404.022C1288.84 412.112 1282.69 422.204 1278.89 428.884C1271.01 442.737 1258.96 454.189 1243.11 457.846C1232.09 460.453 1219.31 461.805 1209.17 455.534C1199.06 449.287 1197.25 439.931 1194.65 429.394C1187.49 437.561 1181.63 444.815 1172.35 450.678C1158.05 459.577 1140.81 462.465 1124.39 458.712C1105.26 454.372 1096.27 444.01 1086.45 428.447C1071.58 448.898 1059.17 461.627 1031.29 459.709C1019.14 458.874 1008.73 450.017 1003.72 439.286C1001.69 434.937 1000.14 424.17 997.435 420.7C995.728 422.266 991.798 427.44 990.419 429.669C970.871 461.28 924.545 472.926 898.394 442.186C894.998 438.193 891.904 432.409 888.829 427.847C878.547 443.23 869.984 454.241 850.339 458.66C840.85 460.794 830.36 460.751 822.033 455.113C812.711 448.803 811.049 440.313 808.919 430.212C802.264 435.393 797.8 443.005 789.831 448.457C769.264 462.528 739.197 464.202 718.735 449.039C711.234 443.481 707.003 437.541 701.719 430.019C695.865 437.975 693.128 444.665 684.411 451.215C675.257 458.094 664.898 460.339 653.604 458.949C647.177 458.159 638.808 454.12 635.241 448.537C619.612 422.545 634.297 389.267 637.686 361.668C638.827 352.374 640.88 332.68 627.506 332.035C605.567 330.976 598.366 366.635 593.893 382.705C587.571 405.42 588.516 437.202 570.758 454.838C566.449 458.715 558.763 459.931 553.329 459.213C548.672 458.598 543.249 455.947 540.642 451.802C526.597 429.472 539.925 391.279 542.799 366.789C543.819 358.093 545.443 343.452 540.288 335.903C538.93 333.915 535.881 332.441 533.649 332.324C509.772 331.075 502.483 376.874 497.887 393.72C494.212 407.191 492.1 420.666 487.042 433.55C483.982 441.409 479.983 448.081 473.519 453.553C463.207 462.282 443.207 461.178 435.046 449.967C425.912 437.42 428.716 415.102 431.949 400.725C433.272 394.843 435.246 388.981 436.468 383.08C436.794 381.532 436.657 381.215 435.894 380.294C432.191 382.525 426.183 402.805 423.336 407.887C414.776 423.164 409.131 436.434 395.075 447.543C383.717 456.534 369.264 460.667 354.871 459.04C307.778 453.287 311.116 403.359 315.384 368.921C289.904 369.245 271.775 365.126 247.799 355.995C204.869 339.51 167.631 311.16 119.161 320.91C87.6239 327.253 68.9661 351.935 76.3473 384.087C79.1405 396.681 86.9682 407.58 98.0078 414.248C108.944 420.858 122.063 422.834 134.46 419.739C165.345 412.237 193.3 373.665 209.054 348.178C216.725 351.926 223.339 354.841 231.202 358.133C210.042 395.207 171.525 442.867 125.224 444.859C106.35 445.637 87.9424 438.867 74.0667 426.046C30.4565 385.549 50.3616 311.823 109.544 299.19C172.786 285.69 213.389 320.318 269.566 339.218C287.085 345.112 301.86 346.291 319.784 345.739C323.476 334.094 327.472 317.479 331.667 302.019C339.44 271.042 357.01 239.279 356.025 206.987C354.558 202.561 349.984 201.861 346.036 203.148C300.463 218.006 270.937 283.872 250.25 323.099C243.419 319.901 235.264 316.322 228.777 312.68C242.647 285.774 257.089 259.041 274.298 234.084C291.879 208.589 313.237 185.833 345.133 180.733Z"/><path fill="white" transform="scale(0.559896 0.559896)" d="M957.211 330.397C991.074 326.717 1004.48 346.155 994.145 377.193C986.498 400.15 973.758 422.369 950.702 432.222C927.925 437.715 914.618 427.161 911.322 404.286C906.855 373.291 922.543 334.62 957.211 330.397Z"/><path fill="#CD9520" transform="scale(0.559896 0.559896)" d="M636.766 513.878C654.218 510.57 671.043 522.049 674.335 539.507C677.626 556.966 666.136 573.785 648.679 577.062C631.243 580.335 614.454 568.859 611.166 551.423C607.879 533.986 619.337 517.182 636.766 513.878Z"/><path fill="white" transform="scale(0.559896 0.559896)" d="M641.095 521.98C645.124 521.766 649.125 522.762 652.584 524.84C668.715 534.695 667.244 564.027 645.035 568.8C616.534 568.143 613.707 528.258 641.095 521.98Z"/><path fill="#CD9520" transform="scale(0.559896 0.559896)" d="M845.094 513.48C870.178 511.425 881.345 525.327 880.807 549.227C863.866 549.13 846.925 549.154 829.985 549.3C834.827 566.913 851.288 576.24 865.376 561.89C869.181 557.046 873.541 558.389 879.255 558.638C872.106 577.44 848.223 583.462 833.299 572.833C810.302 556.454 815.211 519.161 845.094 513.48Z"/><path fill="white" transform="scale(0.559896 0.559896)" d="M847.023 522.652C861.039 521.439 866.777 527.616 870.465 540.106C865.483 540.311 859.295 540.154 854.215 540.171C848.463 540.231 837.979 540.604 831.993 539.936C831.218 539.85 830.718 538.264 830.372 537.475C830.59 530.486 840.785 524.284 847.023 522.652Z"/><path fill="#CD9520" transform="scale(0.559896 0.559896)" d="M518.433 495.131C540.361 492.916 554.214 499.316 563.118 520.121L551.997 520.128C545.011 506.902 531.886 500.626 517.838 504.717C481.006 515.442 492.08 578.904 536.534 566.821C545.107 563.23 547.273 559.862 552.06 552.301C555.379 552.107 559.582 552.265 562.971 552.299C546.484 594.111 483.797 582.075 485.363 536.161C486.107 514.342 495.755 498.833 518.433 495.131Z"/><path fill="#CD9520" transform="scale(0.559896 0.559896)" d="M752.634 489.562L763.087 489.637C763.1 500.404 763.174 511.171 763.308 521.937C773.347 512.143 789.453 509.041 800.097 519.686C811.468 531.058 808.017 561.157 807.907 577.21L797.319 577.22L797.256 539.652C796.641 534.653 795.838 530.94 792.156 527.288C789.046 524.186 784.812 522.476 780.421 522.549C757.222 522.824 763.046 561.294 763.241 577.263L752.616 577.43L752.634 489.562Z"/><path fill="#CD9520" transform="scale(0.559896 0.559896)" d="M708.628 513.488C725.998 511.73 735.857 518.105 742.466 533.926L731.455 533.837C728.727 529.501 725.084 524.75 719.948 523.446C691.415 516.203 682.546 558.436 707.879 567.689C713.669 569.804 719.884 567.947 725.14 565.122C728.413 561.989 729.426 560.354 731.871 556.671L742.949 556.669C730.511 587.209 689.206 584.145 682.684 552.783C678.771 533.97 688.76 517.061 708.628 513.488Z"/><path fill="#CD9520" transform="scale(0.559896 0.559896)" d="M899.266 492.268L909.82 492.165C910.005 499.14 909.969 506.401 910.035 513.403L923.149 513.455L923.183 522.347C918.753 522.254 914.322 522.193 909.891 522.167L910.162 577.187C906.72 577.466 902.794 577.342 899.305 577.317C898.834 559.55 899.139 540.333 899.108 522.456C895.078 522.292 890.476 522.35 886.403 522.314C886.333 519.486 886.433 516.261 886.452 513.398L899.207 513.278L899.266 492.268Z"/><path fill="#CD9520" transform="scale(0.559896 0.559896)" d="M605.397 512.838C607.14 512.885 606.371 512.628 607.792 513.616C608.684 516.003 608.246 519.834 608.121 522.516C579.381 524.731 585.197 555.854 585.344 577.414C582.321 577.461 578.326 578.288 575.751 577.11C574.175 575.05 574.71 574.966 574.641 571.786C574.73 552.469 574.693 533.152 574.53 513.835L584.679 513.908C585.107 517.182 585.149 521.096 585.273 524.441C592.3 516.412 594.851 514.259 605.397 512.838Z"/></svg>