<?xml version="1.0" encoding="utf-8" ?><svg xmlns="http://www.w3.org/2000/svg" xmlns:xlink="http://www.w3.org/1999/xlink" width="1344" height="768" viewBox="0 0 1344 768"><path fill="#FEFEFE" d="M347.725 180.771C374.545 178.003 383.11 197.594 380.774 220.798C378.258 245.775 368.924 267.494 361.485 290.985C356.365 307.487 351.674 324.119 347.417 340.864C367.065 334.993 375.319 323.294 391.326 312.355C394.051 310.492 408.921 320.64 401.975 330.903C388.019 351.521 363.771 360.406 341.449 366.885C340.554 375.77 338.888 384.479 338.524 393.433C338.046 405.192 338.7 419.739 347.219 428.763C351.276 433.062 357.229 435.931 363.173 436.006C392.362 436.371 418.282 360.536 428.308 336.485C431.823 328.053 435.47 315.78 442.213 309.456C444.799 307.03 448.25 305.671 451.808 305.885C458.085 306.262 462.461 310.16 466.39 314.663C466.878 328.97 465.592 344.053 463.874 358.293C462.761 367.287 461.511 376.264 460.127 385.22C458.811 393.274 449.174 432.52 459.131 435.649C461.58 435.08 463.351 433.549 464.296 431.169C478.766 394.736 478.268 305.252 533.89 306.623C591.172 308.035 559.138 392.335 557.223 424.375C557.108 426.294 557.304 428.733 558.721 430.205C566.21 426.222 569.31 342.199 600.573 316.249C609.652 308.712 621.248 305.788 632.902 306.95C641.089 307.767 649.179 310.759 654.436 317.333C672.268 339.634 657.106 385.552 654.25 411.044C653.553 417.265 652.424 427.367 656.868 432.387C658.027 433.702 659.701 434.45 661.454 434.436C676.398 434.454 690.668 403.581 693.124 390.856C695.28 379.681 696.769 369.188 700.994 358.432C705.174 347.826 711.632 338.268 719.911 330.433C738.763 312.613 764.931 305.682 790.382 306.955C805.865 308.202 827.467 308.206 839.686 319.071C843.765 322.698 844.884 331.86 840.15 335.373C831.642 341.689 816.793 335.688 807.401 333.651C802.655 332.666 797.851 331.992 793.018 331.631C753.663 328.495 724.191 349.031 720.66 389.529C718.84 410.401 729.522 433.517 752.667 434.675C781.148 436.101 799.745 405.64 808.581 382.526C812.378 372.767 813.035 360.05 820.59 352.528C822.979 350.2 827.147 348.745 830.511 348.984C833.422 349.176 836.134 350.531 838.037 352.743C842.811 358.229 841.251 364.378 840.439 371.796C838.655 388.089 826.759 416.55 836.744 431.45C841.996 439.287 852.558 433.237 857.847 427.808C869.773 415.567 878.424 399.148 883.136 382.66C886.104 372.409 887.716 362.367 892.003 352.572C896.407 342.583 902.704 333.543 910.547 325.95C924.502 312.515 944.726 304.11 964.166 304.594C983.187 305.068 996.208 312.704 1008.96 326.06C1018.01 301.885 1015.07 272.746 1029.4 250.277C1034.01 243.044 1050.96 217.514 1047.21 210.038C1041.49 208.27 1034.83 219.382 1029.84 215.519C1026.09 204.599 1044.51 179.963 1055.07 184.761C1066.81 190.096 1055.47 229.071 1053.67 238.176L1038.88 311.93C1032.08 345.523 1022.11 380.586 1023.75 415.114C1024.4 428.579 1032.23 441.263 1046.87 432.819C1064.44 422.682 1075.51 403.834 1079.21 384.19C1080.38 378.216 1082.15 372.082 1083.77 366.198C1098.88 310.365 1163.52 297.216 1212.71 311.618C1230.77 316.906 1237.76 330.335 1216.94 339.518C1183.33 329.719 1144.21 322.413 1119.15 353.977C1098.99 379.355 1101.36 441.275 1146.11 434.209C1170.94 430.289 1186.89 402.65 1194.8 381.146C1198.63 370.942 1200.79 347.576 1216.2 348.683C1231.86 350.795 1225.73 372.053 1224.18 382.408C1222.34 394.79 1209.5 437.421 1233.04 435.078C1241.44 434.241 1250.17 426.385 1255.27 419.656C1260.79 411.816 1268.18 390.145 1281.57 397.696C1284.17 399.171 1286.07 401.621 1286.86 404.504C1288.85 411.941 1283.59 420.299 1280.09 427.057C1267.36 451.601 1235.45 468.773 1209.07 455.276C1200.03 450.653 1197.05 438.635 1194.67 429.187C1188.39 436.713 1181.28 444.316 1173.07 449.742C1159.05 458.959 1141.96 462.271 1125.51 458.959C1106.03 454.962 1096.68 443.691 1086.41 428.228C1071.45 449.641 1049.42 468.132 1020.4 456.399C1006.07 450.605 1002.28 433.883 997.535 420.381C995.658 422.497 992.964 425.849 991.466 428.247C973.826 456.475 935.573 471.312 906.782 449.84C898.497 443.662 894.444 436.975 888.869 428.007C879.777 440.961 870.175 452.92 854.419 457.691C845.645 460.348 833.865 461.694 825.631 457.201C814.98 451.389 811.638 440.646 808.491 429.971C802.775 436.643 797.06 442.951 789.865 448.058C776.03 457.829 758.861 461.655 742.188 458.681C722.502 455.264 712.5 445.093 701.617 429.658C696.133 438.954 689.007 448.915 679.403 454.255C670.605 459.147 658.023 460.547 648.319 457.694C640.879 455.506 635.736 450.317 632.605 443.328C617.986 410.692 647.849 358.484 635.462 336.614C634.177 334.347 632.258 332.729 629.702 332.071C625.428 330.973 620.309 332.649 616.757 335.016C595.869 348.931 591.539 395.351 586.815 418.925C584.195 431.998 579.504 448.862 567.669 456.55C563.195 459.456 558.151 460.401 552.941 459.197C510.418 449.368 556.244 359.826 540.237 335.427C538.934 333.442 537.063 332.037 534.687 331.63C530.946 330.989 526.757 332.668 523.671 334.663C493.867 353.925 501.378 434.514 471.769 454.54C465.617 458.7 458.592 460.245 451.292 458.781C444.239 457.366 437.872 454.036 433.892 447.893C422.656 430.555 433.219 396.726 437.26 377.775C431.886 386.047 429.19 393.21 425.347 402.197C418.428 418.483 409.346 434.811 395.919 446.62C377.578 462.75 341.864 464.364 325.72 444.491C309.176 424.126 313.12 393.303 315.157 369.018C293.299 368.644 277.872 366.383 256.939 359.192C212.27 343.847 171.833 311.897 122.023 320.11C106.753 322.66 92.2379 329.394 83.1573 342.448C67.8091 364.513 74.0176 397.755 96.0734 412.932C106.441 420.1 119.269 422.762 131.631 420.312C165.044 413.894 191.22 374.548 209.035 348.524C215.21 350.894 224.636 355.491 230.788 358.342C210.672 396.056 168.719 444.707 122.232 444.569C103.267 444.678 85.072 437.078 71.8156 423.513C58.0642 409.601 50.4694 390.752 50.7339 371.19C50.7791 351.392 58.7673 332.441 72.9068 318.587C90.4853 301.509 113.106 296.535 136.901 296.255C184.946 295.691 224.931 324.77 269.102 339.119C287.422 345.07 300.937 345.627 319.884 345.905C324.944 328.245 328.742 311.849 334.347 292.612C342.327 265.384 357.562 236.038 355.196 207.132C354.896 203.474 350.774 201.273 347.248 202.569C298.64 220.443 272.345 279.442 250.423 322.433C243.06 319.187 236.269 316.203 229.101 312.501C229.868 310.751 230.895 308.971 231.79 307.263C247.437 277.421 262.938 247.593 283.898 221.045C300.812 199.622 319.995 184.075 347.725 180.771ZM950.204 432.221C973.121 421.44 984.535 403.734 993.17 380.396C1004.53 349.683 993.581 326.242 958.028 330.379C942.44 333.185 932.393 338.771 923.009 351.753C904.707 377.071 901.591 442.364 949.364 432.411C949.645 432.352 949.925 432.289 950.204 432.221Z"/><path fill="#FEFEFE" d="M639.326 513.535C656.733 511.684 672.384 524.198 674.413 541.589C676.442 558.981 664.092 574.763 646.727 576.97C635.334 578.419 624.042 573.635 617.154 564.443C610.267 555.251 608.845 543.068 613.432 532.537C618.018 522.006 627.906 514.75 639.326 513.535ZM645.686 568.85C673.1 557.293 666.682 521.232 640.396 521.894C633.568 523.928 628.544 527.217 625.061 533.648C621.83 539.714 621.165 546.822 623.214 553.383C626.504 563.713 635.06 569.041 645.686 568.85Z"/><path fill="#FEFEFE" d="M846.367 513.495C871.628 511.807 879.457 526.032 880.95 548.798L829.449 548.916C837.331 567.115 848.895 576.776 865.859 561.305C869.484 557.514 874.162 558.483 879.055 558.587C878.279 560.111 877.456 561.61 876.586 563.082C872.514 570.016 865.77 574.969 857.938 576.779C817.717 586.22 800.969 523.126 846.367 513.495ZM853.599 540.188L870.715 540.166C865.963 526.746 861.987 521.793 846.913 522.599C841.509 524.737 828.746 530.705 830.2 537.6C834.211 541.842 847.662 540.345 853.599 540.188Z"/><path fill="#FEFEFE" d="M518.719 495.038C541.099 493.133 553.248 499.212 562.626 519.886L551.96 519.895C543.5 507.431 535.065 500.636 519.022 504.112C511.398 505.737 504.779 510.432 500.723 517.091C485.837 541.197 503.391 574.73 535.63 566.965C544.307 563.579 546.915 559.962 551.923 552.536L562.872 552.306C562.071 554.001 561.187 555.656 560.222 557.263C548.403 577.337 524.63 583.594 504.325 571.781C484.916 560.49 479.28 531.475 491.14 512.914C497.946 502.262 506.728 497.859 518.719 495.038Z"/><path fill="#FEFEFE" d="M752.807 489.656L762.914 489.669C762.52 498.964 763.1 512.261 763.22 521.854C769.372 516.985 776.121 512.858 784.23 513.214C813.89 514.515 808.772 557.38 807.816 576.903L797.376 576.936L797.35 540.116C797.034 526.207 787.561 522.083 775.258 522.581C758.368 532.468 762.164 560.164 762.877 576.926L752.714 576.988L752.807 489.656Z"/><path fill="#FEFEFE" d="M711.704 513.555C728.76 512.475 734.572 520.199 742.465 533.501L732.248 533.66C723.925 524.199 715.059 517.427 702.922 525.273C680.99 539.45 698.66 582.983 726.125 564.142C728.446 561.859 730.149 559.284 732.033 556.639L742.688 556.652C740.914 560.184 739.477 562.753 737.056 565.922C728.155 578.555 705.205 582.201 693.585 571.158C672.401 551.025 680.876 516.22 711.704 513.555Z"/><path fill="#FEFEFE" d="M899.246 492.251L909.647 492.333L909.617 513.297L922.846 513.332L923.131 521.869L909.609 521.891C910.017 539.937 909.851 558.784 909.945 576.893L899.157 577.006L899.284 522.186L887.273 522.172C886.864 519.562 886.718 516.025 886.531 513.313L899.248 513.312C899.288 506.292 899.287 499.271 899.246 492.251Z"/><path fill="#FEFEFE" d="M601.613 513.338C606.192 512.923 608.626 514.659 609.049 519.293C606.231 525.54 598.268 521.277 591.556 529.593C582.75 540.503 584.193 564.475 585.272 577.56L574.928 576.922C574.517 556.375 574.823 534.773 574.792 514.142L584.66 514.021L585.511 524.022C591.306 517.832 593.421 515.792 601.613 513.338Z"/></svg>