<?xml version="1.0" encoding="utf-8" ?><svg xmlns="http://www.w3.org/2000/svg" xmlns:xlink="http://www.w3.org/1999/xlink" width="512" height="512" viewBox="0 0 512 512"><path fill="#D4AF38" d="M236.233 0L264.513 0C265.786 0.966403 274.511 1.22022 276.675 1.43823C287.507 2.6326 298.229 4.6748 308.742 7.54604C388.276 28.9856 449.882 91.9429 469.591 171.923C470.074 173.888 470.525 175.849 471.035 177.808C471.803 183.212 473.132 188.679 473.905 194.296C475.715 208.035 476.332 221.906 475.749 235.752C474.852 256.662 470.978 277.338 464.243 297.154C448.787 343.165 418.914 382.97 379.054 410.665C362.061 422.522 342.381 431.876 324.192 441.832C312.204 448.255 301.414 451.011 287.861 450.748C271.341 450.428 254.81 451.262 238.331 450.405C218.138 449.281 198.182 445.484 178.987 439.113C122.178 419.991 75.2971 379.075 48.6676 325.375C21.9425 271.729 17.7628 209.629 37.0581 152.886C60.6202 83.5816 116.327 30.0066 186.497 9.1653C197.69 5.94333 209.104 3.54934 220.648 2.00273C223.224 1.65306 234.823 0.836634 236.233 0ZM118.902 369.377C127.786 377.306 133.641 381.983 143.632 388.89C149.289 392.357 154.199 391.009 160.5 390.487C176.693 389.297 192.765 386.807 208.56 383.041C275.005 366.524 332.288 324.539 368.044 266.15C390.259 229.483 404.386 188.494 409.477 145.926C410.177 140.085 410.691 134.224 411.018 128.351C411.24 123.871 411.222 119.207 411.542 114.767C408.915 111.022 393.139 90.0081 390.079 88.8318C388.41 107.865 385.178 126.728 380.418 145.231C364.527 207.222 329.627 262.683 280.613 303.83C244.308 333.911 201.191 354.649 155.028 364.232C144.713 366.443 129.578 369.094 118.902 369.377ZM93.4105 340.977C102.222 340.086 111.371 340.288 120.23 339.211C147.035 335.951 177.482 330.043 201.668 317.658C207.606 314.925 213.504 312.242 219.276 309.17C221.01 308.246 222.965 307.186 224.791 306.512C217.798 300.394 211.935 293.866 204.4 287.661C169.749 259.131 132.751 241.523 89.258 231.058C81.8792 229.338 74.4352 227.91 66.9434 226.778C63.4945 226.237 58.3252 225.715 55.1298 224.937C55.6756 232.105 55.688 238.7 56.4557 246.061C58.9643 271.528 66.643 296.214 79.022 318.61C82.4098 324.811 88.7854 335.613 93.4105 340.977ZM216.526 417.705C269.912 426.234 320.886 415.438 364.952 383.487C407.371 352.905 435.725 306.564 443.646 254.873C447.699 229.442 446.389 203.532 440.239 178.552C439.727 176.475 437.944 168.112 436.551 166.885C434.989 181.156 429.215 202.118 424.68 215.63C405.568 272.568 372.633 320.569 325.716 358.224C294.114 383.28 257.572 401.373 218.487 411.318C214.908 412.23 208.143 414.111 204.738 414.738L204.37 415.079C204.828 415.663 214.932 417.452 216.526 417.705ZM80.3509 129.915C83.5371 129.968 87.5848 130.615 90.7963 131.058C99.0157 132.19 107.188 133.639 115.296 135.402C161.031 144.782 203.959 164.667 240.689 193.488C259.742 208.507 276.727 225.966 291.734 245.011C292.666 246.193 293.632 247.35 294.408 248.642L295.987 246.289C305.283 234.968 311.057 225.875 319.109 214.063C315.561 209.904 312.014 204.813 308.515 200.44C302.868 193.408 296.824 186.705 290.41 180.364C242.143 132.957 178.539 104.335 111.047 99.6491C107.957 99.4049 104.877 99.2391 101.79 98.9485C95.5413 106.236 85.0462 121.186 80.3509 129.915ZM57.5143 195.233C63.5454 195.588 75.7514 197.647 81.8456 198.721C137.039 208.648 188.436 233.571 230.411 270.76C236.994 276.649 243.284 282.678 249.293 289.17C249.559 289.458 249.751 289.722 249.971 290.042C252.091 288.29 255.791 285.516 257.63 283.805C262.888 279.662 268.526 274.2 273.618 270.445C271.052 267.547 268.437 263.714 265.985 260.595C261.418 254.773 256.598 249.153 251.54 243.752C215.111 205.53 168.408 178.656 117.057 166.365C107.704 164.151 96.0355 161.841 86.6268 160.681C83.1833 160.264 79.7323 159.912 76.2757 159.623C73.4959 159.394 69.7291 159.197 67.0726 158.486C64.2687 166.407 61.9797 175.484 59.9455 183.636C59.0426 187.255 58.4349 191.907 57.5143 195.233ZM249.942 30.1136C239.749 30.5252 229.754 30.9806 219.65 32.5256C217.607 32.8381 214.12 33.1862 212.279 33.845L212.092 34.1372C213.433 34.7224 221.062 36.4106 223.093 36.9565C229.932 38.7921 236.689 40.9222 243.345 43.3408C277.036 55.333 311.341 74.0423 338.89 97.0456C343.199 100.468 353.38 109.277 356.844 113.158C356.987 108.09 358.666 97.7639 359.352 92.0861C360.519 82.4267 360.564 73.7512 361.341 64.3387C358.778 62.8695 356.16 60.9893 353.592 59.4068C348.464 56.207 343.184 53.2597 337.768 50.5752C313.986 38.6541 287.984 31.8102 261.414 30.4784C258.363 30.3432 252.688 29.8661 249.942 30.1136ZM155.103 55.5283C149.828 56.92 134.699 67.9247 130.206 71.7658C143.703 72.604 163.47 77.2138 176.626 80.9519C225.063 94.3004 269.499 119.297 306.059 153.761C313.799 161.108 320.261 168.202 327.285 176.156C328.224 177.207 329.148 178.271 330.056 179.348C331.41 180.959 333.673 183.471 334.626 185.231C335.286 182.784 336.81 179.478 337.828 177.038C339.358 173.374 340.83 169.685 342.243 165.974C343.614 162.375 344.904 158.747 346.115 155.091C346.868 152.756 347.736 149.593 348.596 147.373C339.3 138.226 333.206 131.635 322.933 122.893C286.17 91.6619 242.019 70.3711 194.69 61.0518C183.823 58.8766 166.231 55.5995 155.103 55.5283Z"/></svg>