<?xml version="1.0" encoding="utf-8" ?><svg xmlns="http://www.w3.org/2000/svg" xmlns:xlink="http://www.w3.org/1999/xlink" width="960" height="1091" viewBox="0 0 960 1091"><path fill="#974942" d="M468.706 40.1108C466.544 31.0896 468.138 22.1415 478.658 19.9679C482.418 19.1801 486.336 19.9423 489.526 22.0818C496.086 26.5342 495.94 32.5691 494.758 39.4316C517.521 43.4514 525.829 47.8937 532.178 71.2087C536.801 68.283 542.62 66.4228 547.936 68.0556C569.4 74.6474 567.38 93.8738 560.426 109.583C611.715 105.68 646.669 143.208 657.675 189.406C661.057 203.602 665.463 231.032 684.213 230.434C689.676 230.284 696.035 223.574 695.367 218.116C691.7 211.571 675.854 217.4 680.863 205.433C686.393 192.222 699.073 192.431 710.209 197.395C726.449 204.633 730.185 205.79 723.392 224.241C729.661 225.659 730.428 226.283 731.983 232.755C741.967 230.829 744.858 229.715 752.597 237.426C766.211 236.159 780.85 244.534 769.533 258.705C769.498 266.689 769.419 274.822 763.457 281.085C760.099 284.901 749.44 288.604 745.522 283.926C741.454 279.068 748.333 269.654 739.311 267.67C732.271 266.122 727.174 272.531 726.56 279.121C725.13 294.471 739.643 305.008 751.405 311.664C761.552 317.319 772.253 321.873 782.594 327.169C817.598 345.097 832.746 385.497 829.409 423.036C827.212 447.742 813.745 467.653 801.068 488.067C795.792 496.564 787.659 508.782 794.502 518.515C794.992 519.218 795.603 519.527 796.398 519.757C797.938 519.383 799.425 518.489 800.112 517.001C803.339 510.017 799.602 503.979 809.816 501.952C830.826 497.784 846.636 526.221 835.063 542.934C831.539 548.023 824.085 550.545 819.345 554.591C828.306 564.266 837.239 574.112 836.425 588.136C835.247 608.428 816.045 619.254 801.421 601.07C801.032 600.584 800.658 600.088 800.297 599.581C798.837 597.091 797.413 594.58 796.027 592.048C790.821 592.612 791.553 606.197 792.591 610.012C796.196 623.252 806.329 634.721 813.326 646.298C833.756 680.05 832.558 722.631 810.263 755.181C803.421 765.074 794.92 773.709 785.135 780.706C768.585 792.529 729.968 806.832 733.967 832.943C734.43 835.944 736.067 838.638 738.519 840.43C741.51 842.628 746.507 842.983 749.693 841.09C752.156 837.076 747.566 834.158 748.602 829.066C749.591 827.519 750.455 826.986 752.237 826.615C762.241 824.532 769.717 833.245 771.047 842.397C772.316 851.128 769.042 856.494 763.397 862.493C763.553 866.622 764.021 870.187 760.929 873.415C756.707 877.823 748.432 876.473 743.114 875.391C741.127 879.927 740.231 880.845 735.282 881.655C736.188 892.007 735.358 888.165 732.395 897.425C729.149 907.569 726.196 925.226 710.746 914.94C697.633 917.477 686.178 916.96 682.24 901.501C683.39 896.364 683.846 894.628 688.312 891.262C692.248 891.228 697.002 891.719 699.886 888.678C700.66 887.871 701.081 886.788 701.056 885.67C701.005 883.847 699.558 881.888 698.096 880.984C686.941 874.299 676.439 886.788 671.184 895.214C662.879 908.529 661.723 923.543 657.522 938.18C648.14 970.866 627.216 992.634 592.98 996.602C596.313 1002.92 598.351 1008.46 595.897 1015.81C594.271 1020.72 590.719 1024.75 586.059 1026.98C577.56 1031 567.912 1027.56 564.446 1018.61C563.828 1017.01 563.43 1014.89 563.016 1013.2C561.497 1012.95 556.963 1012.19 556.557 1010.86C553.825 1001.92 550.851 1005.98 546.469 1003.44C540.702 996.144 548.047 988.213 533.763 977.307C532.42 982.336 530.648 988.281 528.035 992.758C520.156 1006.26 500.825 1026.11 485.672 1029.99C471.286 1025.84 450.414 1007 443.749 993.791C440.365 987.083 438.866 982.977 436.77 975.882C429.502 987.335 432.322 989.284 430.297 1001.85C429.84 1004.68 422.684 1002.75 421.889 1005.1C419.734 1010.64 420.049 1010.73 414.687 1013.5L414.289 1013.7C413.128 1019.6 412.445 1024.12 407.131 1027.75C397.729 1034.18 385.338 1028.58 380.16 1019.51C376.217 1012.6 376.763 1006.85 378.593 999.678C369.692 997.491 363.22 996.223 354.715 992.704C327.549 981.464 313.974 954.305 307.069 927.296C303.254 914.081 301.392 893.503 285.487 889.165C280.924 887.833 271.209 889.302 270.433 895.295C268.705 908.626 281.017 899.165 284.993 904.735C289.726 911.366 279.987 922.537 272.661 922.947C266.096 923.314 265.329 923.608 259.463 919.952C255.489 917.756 247.901 916.847 245.297 912.285C243.199 907.882 243.241 901.806 242.116 897.073C241.195 893.743 241.388 892.432 241.129 889.263C231.38 894.863 221.77 897.156 214.143 886.499C210.177 886.506 206.82 886.694 203.097 885.17C192.304 880.752 187.226 874.414 195.841 864.937C194.975 856.839 194.918 847.904 200.483 841.252C203.57 837.592 208.046 835.388 212.83 835.173C225.472 834.61 211.969 851.499 222.098 852.732C232.677 854.019 239.762 846.922 236.231 836.474C231.636 822.873 219.611 815.724 207.571 809.305C179.399 795.858 156.33 786.035 144.917 754.402C139.826 739.967 137.9 724.605 139.271 709.36C140.577 695.491 145.109 681.757 151.582 669.459C154.876 663.273 158.512 657.274 162.474 651.492C171.071 638.821 185.942 621.56 174.964 605.752C172.866 602.73 168.272 601.886 165.302 604.163C161.927 609.442 166.13 620.646 157.62 622.513C144.944 625.294 132.982 613.37 130.782 601.581C127.922 586.253 137.526 577.876 147.523 568.172C138.455 563.815 130.564 559.705 126.87 549.491C124.678 543.55 124.943 536.981 127.606 531.236C132.62 520.605 148.334 512.834 160.374 516.898C164.698 518.357 163.56 529.617 167.714 532.879C169.472 533.178 170.82 532.726 172.334 531.713C174.696 530.135 175.863 527.711 176.208 524.944C179.926 495.065 118.73 463.887 137.941 396.867C143.685 376.827 155.41 360.586 171.403 347.448C177.764 342.222 184.591 337.618 191.532 333.205C205.759 324.158 228.789 312.768 230.688 293.995C231.176 289.171 230.557 284.479 227.357 280.639C225.48 278.388 222.943 276.952 220.006 276.681C217.226 276.41 214.457 277.295 212.349 279.129C207.181 283.665 210.916 287.182 208.575 291.01C205.592 295.886 197.511 291.575 195.232 287.869C192.02 282.647 190.559 277.663 191.529 271.526C193.36 264.677 198.39 251.87 204.422 247.94C209.255 244.791 216.325 246.145 221.625 247.253C225.078 241.783 226.6 241.371 232.934 240.417C231.049 232.275 230.019 230.603 235.691 224.102C235.064 221.487 234.564 219.284 234.487 216.577C234.191 206.255 241.035 193.632 252.657 201.875C256.407 199.801 257.679 199.053 261.985 198.531C272.186 197.248 286.108 205.334 282.559 217.176C281.105 222.028 269.731 218.302 267.753 223.14C264.091 232.096 273.943 239.089 282.148 235.089C292.671 229.959 296.91 221.528 301.347 211.23C305.626 200.971 307.753 189.918 310.981 179.334C318.529 154.587 334.685 132.308 358.875 121.772C371.179 116.413 388.011 112.313 401.653 112.369C396.846 105.37 394.293 98.5135 395.864 89.8784C396.997 83.3273 400.755 77.5224 406.269 73.8077C414.16 68.5543 423.984 69.0929 432.057 73.6179C436.076 52.6496 447.161 41.6525 468.706 40.1108ZM496.917 905.763C554.589 903.068 609.421 870.518 647.154 827.559C756.451 703.126 765.731 501.183 685.781 359.357C671.319 333.701 650.499 307.249 629.256 286.897C590.853 251.107 530.212 220.87 476.192 226.174C416.806 230.154 363.109 260.641 324.206 305.095C256.701 382.234 229.379 490.635 234.843 591.632C239.904 685.193 276.017 785.732 347.063 849.608C385.78 884.419 443.891 910.503 496.917 905.763ZM482.303 69.3622C480.001 68.4848 479.061 68.1765 476.945 66.8711C472.796 65.2078 467.194 63.4028 463.042 65.7052C444.485 75.9959 460.821 97.043 471.13 106.434C472.767 107.926 480.316 114.384 480.982 115.695C489.007 112.655 502.944 97.1063 506.634 88.7336C513.149 73.9512 505.167 58.649 487.886 66.4792C486.141 67.498 484.126 68.4504 482.303 69.3622ZM603.611 166.809C599.797 161.871 597.688 158.729 594.577 153.476C584.746 151.074 582.643 144.888 574.333 139.95C557.417 133.535 535.263 137.1 529.723 156.656C529.63 159.194 529.521 159.845 530.045 162.273C531.161 163.143 533.907 160.632 535.492 160.001C551.384 153.682 556.816 166.134 556.948 178.972C564.011 181.631 571.108 184.197 578.237 186.669C582.019 173.696 590.662 164.47 602.782 176.482C603.469 172.64 603.526 170.751 603.611 166.809ZM175.267 733.255C183.871 745.244 184.141 755.338 199.247 761.464L203.633 762.797C202.728 756.515 201.909 749.969 206.018 744.524C207.179 742.987 208.748 741.667 210.288 740.519C205.329 728.491 201.399 716.154 197.838 703.649C194.986 701.478 192.532 699.839 192.081 695.993C191.573 691.656 195.269 684.142 191.846 680.919C190.123 679.295 186.596 679.018 184.361 679.188C177.112 683.364 173.352 690.929 171.237 698.782C166.257 717.273 175.332 718.785 175.267 733.255ZM761.902 385.526C766.016 397.484 771.712 412.8 775.099 424.855C793.85 427.444 780.284 437.812 781.391 443.916C790.44 454.398 802.554 424.055 801.517 416.384C800.514 408.968 797.552 402.256 798.707 395.28C794.644 390.666 791.652 387.892 790.125 381.705C787.621 371.904 781.929 372.892 776.334 363.669C771.219 358.803 767.8 357.273 760.627 357.443C760.151 357.455 759.675 357.47 759.2 357.488C767.34 367.9 772.264 372.785 761.902 385.526ZM466.152 143.632C469.138 140.429 470.421 139.214 473.893 136.536C467.309 132.126 462.789 128.642 456.955 123.039C454.081 120.279 448.753 114.352 445.843 112.279C449.387 129.468 455.924 136.313 462.26 151.364C463.465 148.742 464.584 146.04 466.152 143.632ZM773.123 743.473C786.472 734.722 793.036 716.697 796.222 701.616C798.598 690.37 798.192 675.132 791.689 665.223C790.049 662.724 788.498 661.133 785.672 660.102C783.439 663.801 781.093 667.367 782.229 671.891C783.22 675.837 787.734 679.649 785.572 683.887C784 686.967 780.696 688.727 777.861 690.457L777.513 690.666C775.772 694.755 774.851 699.521 773.601 703.806C771.033 712.925 768.276 721.991 765.333 730.997C769.251 734.601 771.358 738.473 773.123 743.473ZM346.896 189.605C343.575 191.723 342.168 193.14 338.306 192.851C335.588 192.588 334.971 191.998 332.67 190.614C334.808 197.992 337.86 205.857 340.542 213.131C345.737 209.825 351.983 206.431 357.393 203.342C352.005 198.705 349.806 196.009 346.896 189.605ZM342.73 919.429L346.295 916.642C342.845 914.179 339.296 911.79 335.979 909.151C335.236 912.517 334.419 915.89 333.857 919.29C335.961 919.992 338.89 921.412 341.032 920.4C341.626 920.119 342.173 919.773 342.73 919.429ZM634.566 909.729C631.951 911.617 629.318 913.771 626.52 915.361L630.955 920.09C633.637 919.942 635.462 918.847 637.69 917.443C637.03 914.869 636.539 912.235 635.145 909.945L634.566 909.729ZM205.266 397.286C200.275 394.981 198.46 392.322 196.268 387.366C193.552 381.226 195.732 377.666 198.118 372.09C198.506 371.186 198.76 371.035 197.654 370.527C193.862 374.311 189.186 378.869 185.974 383.15C183.311 386.699 182.272 392.769 180.05 397.007C176.025 404.685 163.915 420.428 164.237 428.615C164.682 439.93 170.266 457.931 182.411 461.029C201.276 455.551 167.951 444.513 191.567 435.274C192.239 435.006 192.916 434.749 193.596 434.503C196.239 423.748 200.574 407.429 205.266 397.286ZM436.838 98.4137C435.792 96.2309 434.7 94.0709 433.56 91.9353L433.171 92.4723C426.693 101.258 423.536 92.4073 418.301 97.2569C417.014 102.651 426.58 110.122 430.737 112.89C430.057 105.849 432.368 103.322 436.838 98.4137ZM381.471 934.62C379.66 938.943 377.597 943.618 372.85 945.398C370.162 946.407 367.386 945.964 364.853 944.732C362.121 943.403 359.784 941.092 357.804 938.822C356.433 942.854 355.719 946.368 357.771 950.351C361.771 958.119 374.349 961.788 382.144 964.388C390.867 966.426 399.084 967.609 407.095 962.661C408.145 962.007 409.162 961.3 410.141 960.545C405.4 960.236 400.819 959.457 397.48 955.714C395.304 953.274 394.276 950.337 393.486 947.223C394.137 945.069 394.715 942.857 395.501 940.75C390.721 938.894 386.107 936.803 381.471 934.62ZM622.02 185.201C617.165 192.841 615.253 195.749 607.757 200.985C613.911 204.466 619.987 208.084 625.979 211.837L630.166 214.28C632.379 207.035 635.439 201.503 637.348 195.451C634.857 195.545 629.219 196.036 627.19 194.597C625.561 193.441 623.46 186.563 622.02 185.201ZM591.137 933.816C585.323 936.506 579.535 939.075 573.378 940.905C574.182 945.371 574.345 949.656 571.502 953.526C569.306 956.515 565.87 958.015 562.252 958.362C558.615 958.71 555.52 957.697 552.116 956.604C556.07 962.744 561.261 966.408 568.41 968.002C571.328 968.652 574.103 968.756 577.081 968.695C587.174 967.145 604.253 958.188 610.237 949.897C612.519 946.735 613.686 943.102 613.221 939.198L612.651 938.751C608.013 940.163 602.825 944.415 597.939 941.632C595.488 940.236 593.295 936.436 591.838 934.061L591.137 933.816ZM497.719 144.3L501.171 151.017C502.198 144.941 503.075 143.324 505.473 137.939C508.111 132.013 517.312 121.407 517.028 115.515L516.586 114.989C509.645 120.163 497.843 131.06 490.046 137.373C493.374 139.47 495.291 141.078 497.719 144.3ZM534.331 110.106L538.212 105.494C541.318 100.255 541.693 99.1981 542.538 93.1699C536.928 93.9888 535.431 93.6319 530.46 90.4689L528.284 96.7183C532.203 102.435 532.883 103.447 534.331 110.106ZM408.714 179.24C408.589 172.574 410.158 164.123 416.573 160.574C422.374 157.364 428.345 159.545 434.194 161.245C433.936 157.037 432.914 155.614 430.658 152.238C423.979 145.211 416.65 141.016 406.697 140.34C398.884 139.809 395.411 145.329 389.743 149.22C388.489 150.08 385.162 150.195 383.631 151.286C375.755 156.894 377.326 158.591 367.515 158.848C364.501 163.642 359.734 176.878 365.795 180.651C367.665 180.723 366.739 180.879 368.585 179.812C378.46 171.501 384.312 177.092 388.422 187.173C394.582 184.397 402.345 181.521 408.714 179.24Z"/><path fill="#F87567" d="M794.93 557.389C804.449 558.797 806.974 558.785 816.186 555.667C824.926 566.797 835.109 574.012 833.07 589.753C831.318 603.276 820.979 612.827 807.882 604.391C805.621 602.001 803.135 600.485 801.452 597.617L800.297 599.581C798.837 597.091 797.413 594.58 796.027 592.048L798.326 592.231L795.712 587.477C774.612 606.582 803.667 634.198 812.882 651.827C834.536 693.251 826.618 738.209 792.614 770.195C788.015 774.542 783.018 778.446 777.688 781.857C759.881 793.154 731.465 804.458 730.7 828.726C730.547 833.583 731.207 837.245 734.617 840.978C737.164 843.806 740.764 845.459 744.569 845.547C748.8 845.641 754.365 842.787 754.463 838.02C754.515 835.474 751.877 832.089 752.363 830.066C764.322 826.989 773.262 845.582 765.887 854.453C764.06 856.651 761.564 860.174 759.952 862.549C760.389 865.446 761.219 868.253 759.177 870.696C754.447 876.355 746.047 873.237 740.855 870.225C737.524 890.471 725.655 868.766 721.483 863.006C705.042 863.284 714.701 848.584 709.934 845.191L707.749 846.384C701.031 842.072 704.549 832.639 707.921 827.176C709.76 824.195 712.207 822.075 714.793 819.761L710.132 815.75C713.347 807.57 718.117 803.84 726.107 800.384C729.474 798.958 732.892 797.654 736.354 796.476C733.525 795.786 725.857 792.829 728.469 788.748C733.139 781.451 742.542 779.883 750.474 779.032C729.771 770.281 730.21 741.805 750.294 732.66C757.654 729.309 766.711 734.381 768.942 741.372C773.764 752.042 760.089 766.657 753.903 755.862C753.744 751.82 760.502 748.662 758.639 746.903C754.808 743.289 747.299 749.499 745.381 751.961C742.812 755.243 741.651 759.411 742.153 763.55C743.579 775.622 758.658 780.432 769.207 779.934C770.542 779.871 771.403 779.153 772.211 778.157L772.102 777.362C768.964 775.636 766.173 775.668 762.939 774.477C760.58 773.608 756.963 769.656 759.578 767.158C764.803 762.169 772.364 762.284 779.044 761.2C779.125 760.876 779.207 760.552 779.289 760.228C777.473 756.27 778.188 753.916 782.158 751.828C799.096 742.922 808.807 747.016 817.611 727.371C813.795 732.092 810.293 736.165 804.827 739.07C800.964 741.122 794.47 744.209 790.369 741.651C786.693 734.85 802.385 725.059 807.003 721.83C803.684 722.233 801.395 722.878 798.615 720.92C796.134 715.918 806.322 709.668 809.807 706.681C828.125 690.998 815.119 656.725 799.837 643.546C798.803 642.654 790.91 639.019 790.887 638.479C790.462 628.788 774.877 630.917 767.008 623.471C766.303 621.106 767.639 619.704 768.95 617.716C762.076 611.38 758.632 607.047 768.928 602.569C768.593 597.844 766.252 586.548 772.182 585.49C774.073 586.247 774.291 586.499 775.922 587.789C778.782 571.195 779.749 566.434 794.93 557.389Z"/><path fill="#F89386" d="M795.712 587.477C808.125 580.343 814.082 594.303 807.882 604.391C805.621 602.001 803.135 600.485 801.452 597.617L800.297 599.581C798.837 597.091 797.413 594.58 796.027 592.048L798.326 592.231L795.712 587.477Z"/><path fill="#503434" d="M798.326 592.231C799.203 593.868 800.348 596.208 801.452 597.617L800.297 599.581C798.837 597.091 797.413 594.58 796.027 592.048L798.326 592.231Z"/><path fill="#F89386" d="M235.722 416.631C262.86 338.173 314.202 262.891 390.695 225.871C442.043 200.525 501.45 196.982 555.448 216.044C628.957 241.95 684.298 303.315 717.221 372.384C760.709 465.31 771.896 570.103 749.006 670.115C744.06 692.056 738.617 706.472 731.857 727.122L733.326 728.238C704.91 799.312 666.822 856.387 600.567 896.737L599.062 895.935C574.352 910.371 547.231 920.213 519.013 924.983C499.044 928.317 482.416 927.978 462.377 925.536C330.924 909.518 251.91 790.591 223.975 670.419C221.174 658.328 218.838 646.134 216.969 633.864C215.782 625.615 215.011 616.881 213.676 608.739C213.432 610.729 213.323 612.378 212.694 614.289L212.719 617.086L211.971 617.773C206.942 616.338 208.414 607.646 209.057 603.966C205.254 594.339 203.92 589.876 203.959 579.068C204.011 564.785 202.949 550.097 207.309 536.275C207.945 534.257 207.099 532.137 208.062 529.906C209.372 528.742 209.103 528.575 210.497 528.488C212.164 531.46 210.25 544.84 210.444 550.461C211.481 553.045 211.442 556.093 211.59 558.905C211.957 556.468 212.055 553.136 212.13 550.594C212.753 529.598 215.459 509.367 218.219 488.598L216.532 487.353C217.042 484.421 219.983 471.275 219.214 469.399L219.723 464.245C219.902 464.417 219.737 464.302 220.533 464.547C221.478 463.251 223.649 452.773 224.226 450.476C227.195 438.615 230.656 426.883 234.602 415.31L235.722 416.631ZM496.917 905.763C554.589 903.068 609.421 870.518 647.154 827.559C756.451 703.126 765.731 501.183 685.781 359.357C671.319 333.701 650.499 307.249 629.256 286.897C590.853 251.107 530.212 220.87 476.192 226.174C416.806 230.154 363.109 260.641 324.206 305.095C256.701 382.234 229.379 490.635 234.843 591.632C239.904 685.193 276.017 785.732 347.063 849.608C385.78 884.419 443.891 910.503 496.917 905.763Z"/><path fill="#F87567" d="M209.057 603.966C205.254 594.339 203.92 589.876 203.959 579.068C204.011 564.785 202.949 550.097 207.309 536.275C207.945 534.257 207.099 532.137 208.062 529.906C209.372 528.742 209.103 528.575 210.497 528.488C212.164 531.46 210.25 544.84 210.444 550.461C211.481 553.045 211.442 556.093 211.59 558.905C211.609 576.502 212.321 591.124 213.676 608.739C213.432 610.729 213.323 612.378 212.694 614.289L212.719 617.086L211.971 617.773C206.942 616.338 208.414 607.646 209.057 603.966Z"/><path fill="#503434" d="M210.444 550.461C211.481 553.045 211.442 556.093 211.59 558.905C211.609 576.502 212.321 591.124 213.676 608.739C213.432 610.729 213.323 612.378 212.694 614.289C209.91 597.248 209.77 567.749 210.444 550.461Z"/><path fill="#503434" d="M731.857 727.122L733.326 728.238C704.91 799.312 666.822 856.387 600.567 896.737L599.062 895.935C606.445 891.544 614.171 885.817 621.115 880.705C674.377 841.497 708.151 788.024 731.857 727.122Z"/><path fill="#503434" d="M234.602 415.31L235.722 416.631C227.734 437.422 221.673 466.722 218.219 488.598L216.532 487.353C217.042 484.421 219.983 471.275 219.214 469.399L219.723 464.245C219.902 464.417 219.737 464.302 220.533 464.547C221.478 463.251 223.649 452.773 224.226 450.476C227.195 438.615 230.656 426.883 234.602 415.31Z"/><path fill="#974942" d="M480.995 217.58C481.495 217.555 481.994 217.534 482.494 217.517C539.295 215.582 595.538 243.779 635.837 282.437C706.892 350.596 742.057 450.08 745.746 546.829C749.782 652.673 719.242 762.097 645.901 840.311C605.683 883.201 550.987 911.708 491.58 913.616C350.892 916.151 260.108 782.717 235.13 657.729C232.186 642.999 230.934 629.447 229.159 614.646C210.899 462.37 279.086 264.601 442.454 222.406C454.445 219.309 468.651 218.099 480.995 217.58ZM496.917 905.763C554.589 903.068 609.421 870.518 647.154 827.559C756.451 703.126 765.731 501.183 685.781 359.357C671.319 333.701 650.499 307.249 629.256 286.897C590.853 251.107 530.212 220.87 476.192 226.174C416.806 230.154 363.109 260.641 324.206 305.095C256.701 382.234 229.379 490.635 234.843 591.632C239.904 685.193 276.017 785.732 347.063 849.608C385.78 884.419 443.891 910.503 496.917 905.763Z"/><path fill="#F87567" d="M473.463 220.241C528.643 216.663 581.329 238.591 622.958 273.774C696.011 335.515 734.89 435.611 742.761 529.014C751.518 632.919 725.096 743.497 656.933 824.168C614.542 874.339 565.756 905.654 499.445 911.203C498.885 911.268 498.323 911.321 497.761 911.365C443.002 915.737 385.842 891.535 345.364 855.669C270.83 789.628 235.973 691.722 229.13 594.642C221.973 493.11 251.122 379.863 318.772 302.366C358.189 257.211 412.932 224.384 473.463 220.241ZM496.917 905.763C554.589 903.068 609.421 870.518 647.154 827.559C756.451 703.126 765.731 501.183 685.781 359.357C671.319 333.701 650.499 307.249 629.256 286.897C590.853 251.107 530.212 220.87 476.192 226.174C416.806 230.154 363.109 260.641 324.206 305.095C256.701 382.234 229.379 490.635 234.843 591.632C239.904 685.193 276.017 785.732 347.063 849.608C385.78 884.419 443.891 910.503 496.917 905.763Z"/><path fill="#503434" d="M476.192 226.174C530.212 220.87 590.853 251.107 629.256 286.897C650.499 307.249 671.319 333.701 685.781 359.357C765.731 501.183 756.451 703.126 647.154 827.559C609.421 870.518 554.589 903.068 496.917 905.763C443.891 910.503 385.78 884.419 347.063 849.608C276.017 785.732 239.904 685.193 234.843 591.632C229.379 490.635 256.701 382.234 324.206 305.095C363.109 260.641 416.806 230.154 476.192 226.174ZM493.256 902.123C630.506 896.181 715.256 751.156 730.407 629.274C733.582 603.74 736.397 578.366 734.99 552.508C731.47 482.089 713.414 410.455 675.756 350.324C662.224 328.715 645.749 306.713 626.784 289.569C586.439 253.098 534.641 226.902 479.256 229.298C418.833 233.511 367.325 261.749 327.431 307.046C259.484 384.193 231.562 495.448 238.671 596.66C245.016 686.997 280.608 786.618 350.485 847.634C390.442 882.524 439.579 903.67 493.256 902.123Z"/><path fill="#F87567" d="M461.461 172.893C473.427 173.854 475.805 209.749 498.426 173.069L504.501 173.181C508.538 179.417 512.266 185.103 518.711 189.058C532.728 197.659 546.499 197.014 555.879 182.677C563.429 184.635 571.896 187.501 578.935 190.787C586.05 203.16 591.628 204.237 605.154 202.961C613.155 208.112 621.143 213.362 629.385 218.115C630 229.6 631.113 233.633 643.421 233.5C646.696 246.099 649.178 257.528 665.026 257.261C666.075 258.314 667.142 259.349 668.225 260.367C672.178 264.012 678.679 267.002 684.049 266.511C689.789 265.987 692.211 263.402 695.728 259.516C700.018 259.596 705.839 258.384 708.25 259.109C709.152 260.763 708.672 261.085 708.356 263.447C693.065 273.834 699.296 285.25 705.917 298.07C699.085 310.99 711.674 319.822 721.778 325.017C712.244 335.755 728.629 341.452 736.689 343.479C735.729 344.859 734.783 346.248 733.852 347.647C720.901 367.193 732.793 393.625 758.862 387.367C763.44 398.904 768.511 413.869 771.523 425.722C758.302 431.236 762.119 436.932 755.516 441.901C752.601 441.104 749.987 428.425 748.981 425.136C714.886 313.701 628.721 208.754 506.765 194.623C502.154 194.017 496.61 193.889 491.937 193.773C369.505 190.751 278.639 283.601 235.131 389.962C230.49 401.226 226.438 412.724 222.99 424.408C220.588 432.855 217.626 447.39 214.023 454.615L213.689 455.276C208.244 443.673 209.186 440.522 197.066 435.123C199.269 424.079 203.898 409.423 207.924 398.853C209.961 399.267 212.321 399.785 214.389 399.804C220.007 399.88 225.419 397.695 229.409 393.74C242.012 381.133 237.256 362.687 225.43 351.367C235.854 350.392 252.061 344.626 241.655 331.898C249.915 327.577 269.42 315.829 257.231 305.536C267.47 297.873 268.971 284.322 259.174 275.573C258.906 271.987 258.15 267.84 257.586 264.242C262.63 265.199 266.568 265.315 271.659 265.223C281.799 277.697 296.207 268.115 304.06 258.687C319.603 261.186 322.206 249.906 326.869 238.188C341.842 239.741 341.661 228.107 341.505 216.936C348.063 212.693 354.096 208.808 361.159 205.439C377.588 208.275 383.119 205.772 389.69 190.233C396.52 187.132 402.354 185.217 409.482 183.14C415.823 191.031 422.568 196.634 433.431 195.86C441.79 195.277 450.593 189.887 455.287 183.002C457.616 179.585 458.385 176.267 461.461 172.893Z"/><path fill="#F87567" d="M150.421 568.756C159.966 571.361 166.624 571.73 176.306 571.167C189.654 577.979 194.083 587.215 194.533 601.789C195.748 600.413 198.4 597.406 200.214 597.411C207.953 597.434 204.28 613.026 203.774 617.018C216.079 620.545 212.766 625.329 206.771 633.507C215.608 648.481 190.744 644.935 183.783 651.608C183.528 653.523 183.317 652.688 184.308 654.228C193.187 653.749 203.583 650.041 210.422 657.662C212.452 660.437 210.368 662.726 211.51 664.987C214.453 670.813 227.16 679.953 213.84 683.396C213.4 687.652 213.384 691.956 211.132 695.751C207.839 701.301 194.633 703.931 195.192 694.698C195.499 689.622 197.581 679.24 191.706 676.992C177.324 671.488 169.392 690.868 167.45 701.739C165.462 712.03 167.809 718.225 171.857 727.349C167.336 724.079 160.106 719.23 157.001 714.749C145.665 698.384 158.626 673.887 172.919 663.919C184.815 655.622 195.107 655.159 208.599 657.434C203.396 652.793 192.183 654.273 185.994 655.644C172.736 659.699 163.111 666.812 156.646 679.16C150.599 690.711 147.413 704.004 154.413 715.797C157.853 721.591 172.999 728.058 169.848 735.041C167.265 737.284 163.058 736.076 159.832 735.561C165.61 739.501 177.391 744.586 178.968 751.77C178.606 752.723 178.595 753.343 177.42 753.629C168.549 755.787 159.227 750.969 152.585 745.841L152.117 747.079C163.71 760.61 171.669 756.845 186.356 765.155C191.339 767.974 188.582 773.911 190.801 774.786C200.08 778.443 203.74 772.632 208.502 784.742C207.705 786.327 207.25 787.325 206.608 788.979C204.065 790.413 201.975 791.676 198.91 791.613L194.708 792.747C200.058 793.5 203.616 793.926 209.034 793.711C210.407 793.872 210.545 793.74 211.92 793.43C220.095 792.735 227.57 790.595 235.917 792.568C241.633 793.919 249.973 796.32 246.47 804.09C243.795 806.559 241.212 806.814 237.712 807.461C245.032 809.691 277.695 823.239 257.882 831.98C262.837 839.264 270.978 854.637 262.748 862.432C260.422 863.482 259.958 862.768 257.159 862.572C254.039 870.195 256.531 879.083 247.722 884.624C246.933 885.797 242.841 884.679 243.127 884.534C234.962 888.655 220.653 898.398 217.067 882.516C208.742 884.386 199.88 882.543 194.785 875.305C191.859 871.151 197.442 867.758 200.329 866.349C197.308 855.874 197.152 843.587 210.472 838.557C211.58 838.139 213.007 839.144 213.854 839.86C215.499 842.835 214.559 844.672 213.719 848.001C222.58 866.169 244.591 851.181 239.774 836.132C231.396 809.953 194.396 801.881 173.81 787.695C157.718 776.605 148.255 759.157 144.365 740.272C139.563 717.333 142.803 693.44 153.54 672.607C158.352 663.435 164.834 654.387 170.567 645.531C177.432 635.134 183.521 625.893 181.213 612.837C179.884 605.314 173.354 598.619 164.954 600.242C159.33 601.328 162.118 613.387 159.659 617.108C156.381 622.067 146.006 618.769 142.362 615.461C137.194 611.378 134.239 605.549 133.436 599.03C131.902 586.568 143.075 577.731 150.421 568.756Z"/><path fill="#F89386" d="M194.708 792.747C193.352 792.721 193.438 792.765 192.252 792.12C194.477 791.441 196.565 791.611 198.91 791.613L194.708 792.747Z"/><path fill="#F89386" d="M152.117 747.079C151.11 745.871 150.378 745.266 150.159 743.722L150.846 743.762L152.585 745.841L152.117 747.079Z"/><path fill="#F87567" d="M437.762 101.776L438.641 101.34C439.459 102.356 442.273 106.465 442.452 107.574C443.118 111.701 448.849 128.162 449.086 130.442C451.911 135.887 455.536 142.267 457.752 147.908C463.639 162.894 456.961 182.901 442.365 190.176C432.633 195.026 418.1 193.746 413.405 182.734C409.758 174.605 412.128 165.913 420.586 162.15C424.484 160.415 428.335 161.731 431.878 163.725L432.133 163.475C433.52 164.227 434.184 164.21 435.539 163.411C435.268 161.815 435.583 162.576 434.194 161.245C433.936 157.037 432.914 155.614 430.658 152.238C423.979 145.211 416.65 141.016 406.697 140.34C398.884 139.809 395.411 145.329 389.743 149.22C388.489 150.08 385.162 150.195 383.631 151.286C375.755 156.894 377.326 158.591 367.515 158.848C364.501 163.642 359.734 176.878 365.795 180.651C367.665 180.723 366.739 180.879 368.585 179.812L369.638 184.455C374.526 170.787 390.875 183.914 383.486 197.109C381.474 200.682 378.047 203.24 374.05 204.152C361.911 206.884 354.313 196.788 347.889 188.595L346.896 189.605C343.575 191.723 342.168 193.14 338.306 192.851L337.845 192.089C336.031 191.558 334.237 190.212 332.973 188.814L333.263 188.029L335.012 188.745C330.535 181.397 330.238 177.98 329.207 169.457C328.652 173.305 327.989 181.231 328.609 185.019C330.775 198.254 339.033 212.064 338.33 225.559C338.047 228.269 337.318 232.95 334.879 234.526C328.984 238.336 326.291 232.669 323.98 228.614C323.599 238.57 320.938 249.749 312.96 256.361C308.999 259.643 306.031 254.919 304.395 252.147C301.812 256.634 298.362 260.56 294.245 263.699C286.328 269.667 279.49 270.541 273.272 262.042C263.39 262.145 258.322 262.091 249.984 256.486C248.515 253.729 248.124 252.355 247.173 249.391C242.349 245.925 234.033 240.249 234.25 233.34C234.352 230.105 237.558 227.842 239.884 225.96C239.91 223.554 237.718 220.739 237.627 218.44C237.24 208.698 241.232 196.703 252.194 205.996C256.31 203.597 259.189 201.75 264.659 201.642C270.717 201.522 279.788 206.578 280.274 213.42C280.37 214.769 279.333 215.591 278.42 216.434C276.176 217.086 273.811 216.619 271.424 216.383C260.978 222.674 260.261 233.277 271.842 238.112C275.686 239.724 280.023 239.696 283.846 238.034C305.257 228.908 311.105 185.648 319.838 165.537C335.952 128.43 377.435 111.276 416.152 117.372C420.531 118.062 428.671 122.051 433.032 123.884C433.974 124.293 434.411 124.444 435.397 124.736L436.404 124.076C436.475 122.246 434.213 118.217 433.259 116.163L433.705 115.538C433.24 114.412 432.917 112.431 432.663 111.158C433.994 107.198 434.717 104.843 437.762 101.776Z"/><defs><linearGradient id="gradient_0" gradientUnits="userSpaceOnUse" x1="375.38461" y1="127.16651" x2="386.24271" y2="191.57239"><stop offset="0" stop-color="#CF6356"/><stop offset="1" stop-color="#A84A40"/></linearGradient></defs><path fill="url(#gradient_0)" d="M346.805 168.7C358.651 174.345 359.691 158.8 361.308 151.006C363.303 141.386 363.797 135.519 371.577 128.729C372.152 129.207 369.27 132.946 368.611 134.072C365.732 138.485 362.994 149.84 368.839 152.846C375.126 156.078 380.34 146.495 382.437 142.668L385.727 147.257C391.081 143.847 391.452 143.436 394.903 138.03C406.196 137.852 427.675 138.715 433.014 150.88L432.896 153.019C432.085 152.755 431.456 152.549 430.658 152.238C423.979 145.211 416.65 141.016 406.697 140.34C398.884 139.809 395.411 145.329 389.743 149.22C388.489 150.08 385.162 150.195 383.631 151.286C375.755 156.894 377.326 158.591 367.515 158.848C364.501 163.642 359.734 176.878 365.795 180.651C367.665 180.723 366.739 180.879 368.585 179.812L369.638 184.455C374.526 170.787 390.875 183.914 383.486 197.109C381.474 200.682 378.047 203.24 374.05 204.152C361.911 206.884 354.313 196.788 347.889 188.595L346.896 189.605C343.575 191.723 342.168 193.14 338.306 192.851L337.845 192.089C336.031 191.558 334.237 190.212 332.973 188.814L333.263 188.029L335.012 188.745C347.88 195.967 347.811 176.271 346.805 168.7Z"/><path fill="#F87567" d="M347.889 188.595C351.312 182.621 350.726 176.843 352.139 174.579C354.425 175.413 354.782 180.424 355.28 182.757C356.87 190.206 369.392 199.635 376.198 192.748C374.095 189.084 370.041 190.46 369.638 184.455C374.526 170.787 390.875 183.914 383.486 197.109C381.474 200.682 378.047 203.24 374.05 204.152C361.911 206.884 354.313 196.788 347.889 188.595Z"/><path fill="#F89386" d="M394.903 138.03C404.702 121.074 415.929 123.391 431.135 130.21C450.497 138.893 460.467 177.801 434.883 182.665C431.257 183.373 427.501 182.51 424.547 180.291C423.061 179.185 422.082 178.197 420.899 176.8C422.271 176.293 423.48 175.638 424.794 174.989L427.376 175.937C430.735 175.328 431.503 174.955 433.994 172.627C434.919 168.39 435.013 166.672 431.878 163.725L432.133 163.475C433.52 164.227 434.184 164.21 435.539 163.411C435.268 161.815 435.583 162.576 434.194 161.245C433.936 157.037 432.914 155.614 430.658 152.238C431.456 152.549 432.085 152.755 432.896 153.019L433.014 150.88C427.675 138.715 406.196 137.852 394.903 138.03Z"/><path fill="#503434" d="M430.658 152.238C431.456 152.549 432.085 152.755 432.896 153.019L433.014 150.88C435.443 156.178 436.318 157.537 436.169 163.507C436.138 164.753 435.132 172.889 435.173 173.248L433.994 172.627C434.919 168.39 435.013 166.672 431.878 163.725L432.133 163.475C433.52 164.227 434.184 164.21 435.539 163.411C435.268 161.815 435.583 162.576 434.194 161.245C433.936 157.037 432.914 155.614 430.658 152.238Z"/><path fill="#503434" d="M433.994 172.627L435.173 173.248C434.054 175.226 433.938 175.827 432.044 176.856C430.173 177.157 429.07 177.026 427.376 175.937C430.735 175.328 431.503 174.955 433.994 172.627Z"/><path fill="#F89386" d="M437.762 101.776L438.641 101.34C439.459 102.356 442.273 106.465 442.452 107.574C443.118 111.701 448.849 128.162 449.086 130.442C444.01 125.403 438.077 117.191 437.54 109.768C437.349 107.143 438.609 104.434 437.762 101.776Z"/><path fill="#503434" d="M433.705 115.538C436.893 122.794 441.111 127.182 443.931 133.526C440.251 130.365 436.618 127.151 433.032 123.884C433.974 124.293 434.411 124.444 435.397 124.736L436.404 124.076C436.475 122.246 434.213 118.217 433.259 116.163L433.705 115.538Z"/><path fill="#503434" d="M418.816 170.326C420.813 171.818 422.826 173.444 424.794 174.989C423.48 175.638 422.271 176.293 420.899 176.8C420.023 174.843 419.419 172.414 418.816 170.326Z"/><path fill="#F87567" d="M223.942 250.028C224.752 247.432 225.229 245.929 227.593 244.608C233.137 243.753 237.505 253.722 241.932 256.369C244.117 257.676 248.562 258.998 251.194 260.019C251.433 260.278 251.666 260.543 251.894 260.812C256.754 266.601 256.176 271.514 255.677 278.429C269.532 284.905 260.873 299.441 252.373 306.351C253.981 307.157 256.747 308.378 257.308 310.095C261.084 321.673 238.905 329.271 232.037 331.765C235.808 332.947 239.332 333.474 241.535 336.634C245.084 352.111 213.948 347.259 206.592 347.091C202.106 346.988 196.161 348.457 191.83 349.501C194.131 350.056 195.049 350.317 197.378 350.459C199.402 349.162 204.876 348.995 207.117 349.756L206.633 350.325C209.194 352.048 210.858 352.2 212.877 353.386L212.909 354.5L211.658 354.078C210.564 355.911 211.625 359.496 211.824 361.982C211.234 362.853 208.565 366.662 208.4 367.375C205.08 369.019 200.458 368.786 196.906 367.984C194.311 367.945 192.251 367.363 190.577 369.48C190.419 370.828 189.983 374.109 188.967 374.76C173.037 384.953 163.827 379.312 149.797 395.886C155.069 391.607 172.008 381.655 177.998 387.301C180.787 396.111 168.898 400.28 163.446 404.158C165.454 405.603 165.967 405.886 167.535 407.731C167.966 412.64 159.548 416.541 155.349 420.145C153.096 422.091 151.176 424.391 149.664 426.955C140.3 442.959 150.335 465.345 162.247 477.134C167.097 481.935 172.124 484.7 177.956 488.074C178.31 489.192 178.873 491.49 179.933 492.082C186.644 495.829 195.07 496.595 201.77 500.461C207.698 503.882 207.669 506.555 204.309 511.877C210.342 518.255 215.081 524.404 203.414 527.195C203.482 527.795 203.545 528.395 203.604 528.996C204.004 533.099 205.26 543.364 199.676 543.746C197.577 542.964 197.009 541.933 195.571 540.207C193.74 552.106 189.026 563.872 176.179 567.491C160.025 572.041 134.159 563.355 128.878 545.98C124.855 532.742 136.374 522.463 148.304 519.897C161.466 517.165 160.093 521.5 161.693 531.409C168.917 541.091 179.868 534.224 179.191 522.382C178.149 504.161 165.75 491.727 156.207 477.367C152.352 471.575 148.969 465.483 146.09 459.149C127.141 417.237 140.628 376.419 175.654 347.953C193.925 332.266 221.601 324.562 232.201 301.356C238.505 287.556 229.56 267.04 211.017 275.925C206.165 278.25 208.419 287.151 203.302 289.177C197.717 289.214 194.087 279.617 194.125 274.911C194.164 270.008 197.705 266.066 199.529 261.787C200.831 258.538 200.807 254.206 203.817 251.837C208.787 247.925 217.896 249.556 223.942 250.028Z"/><path fill="#503434" d="M197.378 350.459C199.402 349.162 204.876 348.995 207.117 349.756L206.633 350.325C209.194 352.048 210.858 352.2 212.877 353.386L212.909 354.5L211.658 354.078C210.564 355.911 211.625 359.496 211.824 361.982C211.234 362.853 208.565 366.662 208.4 367.375C205.08 369.019 200.458 368.786 196.906 367.984C201.735 367.136 211.791 364.848 208.32 357.287C206.51 353.345 201.252 351.796 197.378 350.459Z"/><path fill="#F87567" d="M736.773 234.485C744.004 233.685 745.759 235.628 750.873 240.266C756.889 240.513 766.245 240.228 769.541 246.034C772.95 252.041 768.121 255.258 763.745 257.473C765.981 262.377 768.041 268.07 765.051 273.25C762.662 277.391 753.979 286.074 748.951 282.895C746.628 279.942 747.436 275.555 747.245 271.984C747.129 269.821 746.426 267.53 744.709 266.1C742.284 264.082 738.195 264.057 735.232 264.388C731.767 264.776 728.874 266.945 726.795 269.657C723.577 273.856 723.01 279.103 723.772 284.193C728.178 313.628 771.71 322.055 792.705 337.833C807.943 349.283 817.616 364.786 822.582 383.087C842.744 457.386 783.962 482.962 789.255 515.986C789.586 518.051 790.174 520.189 792.007 521.415C793.876 522.665 796.683 523.117 798.854 522.522C804.144 521.073 803.799 512.617 806.329 508.624C807.657 506.528 809.546 505.283 811.996 504.874C816.65 504.098 821.571 505.825 825.274 508.596C831.032 512.907 834.827 520.077 835.732 527.16C836.38 532.23 835.566 537.122 832.293 541.203C827.618 547.032 814.205 554.449 806.742 555.369C799.317 556.285 792.919 553.831 787.096 549.379C780.706 542.636 780.066 537.95 777.477 529.038C774.853 531.548 773.122 533.37 769.46 531.923C765.821 527.861 767.347 519.477 767.632 513.964C766.534 513.387 765.451 512.78 764.387 512.143C756.327 507.216 761.765 500.052 765.431 494.636C755.236 480.883 778.132 481.135 786.128 478.394C787.128 476.878 788.797 474.223 790.24 473.365C804.509 464.883 813.38 458.195 817.804 441.332C821.081 428.837 821.446 418.808 810.782 409.452C807.402 406.486 802.316 402.433 803.76 397.613C805.155 395.91 806.568 395.547 808.614 394.668C804.942 391.377 793.482 383.753 796.311 377.955C802.611 373.865 815.559 383.379 820.609 387.03C813.776 377.448 807.256 375 796.268 371.085C788.673 368.38 778.961 365.922 785.634 356.537C779.749 355.82 763.764 354.425 764.214 345.87C767.387 338.603 779.862 339.951 786.272 340.541C766.694 333.953 759.863 337.796 740.318 339.912C734.236 340.57 721.883 337.224 721.932 329.704C723.093 327.562 726.5 325.238 728.675 323.345C723.892 321.357 718.776 320.311 714.696 316.812C708.569 311.559 701.836 304.616 712.1 299.455C706.706 294.406 703.819 289.529 702.615 282.421C701.623 276.562 702.51 267.567 709.799 267.464C711.215 267.443 711.589 266.105 711.757 264.822C713.368 252.479 712.791 250.86 722.105 242.575L725.886 245.875C729.27 240.082 730.666 237.551 736.773 234.485Z"/><path fill="#F87567" d="M521.004 108.103C522.428 105.415 524.038 101.578 526.864 100.665L527.607 101.364C530.979 106.968 531.573 109.315 531.063 115.839C529.124 117.941 526.607 121.898 525.392 124.5C524.295 125.843 523.207 127.194 522.128 128.551C542.659 114.903 558.025 109.294 582.537 113.99C626.205 122.354 648.191 158.433 656.964 198.781C659.968 212.599 664.703 230.092 680.213 233.477C693.155 236.763 706.864 216.195 691.978 210.741C690.702 210.273 686.457 211.654 683.899 210.768C681.415 205.82 686.338 201.069 690.598 199.227C695.778 196.993 701.633 196.907 706.876 198.989C709.034 199.865 710.054 200.948 711.718 202.492L712.294 203.018C712.407 203.126 712.52 203.233 712.634 203.34C716.087 203.595 718.658 203.51 721.143 206.329C726.194 212.06 722.728 220.869 718.342 225.872C722.018 226.268 729.763 227.207 728.349 232.544C726.927 237.91 716.07 242.423 711.715 244.591L711.229 244.833C712.66 261.347 701.408 254.607 692.255 256.293C688.533 264.705 684.594 265.589 675.507 261.607C671.095 259.673 667.773 255.083 664.949 251.29C662.055 254.624 658.468 255.941 654.956 252.304C648.827 245.959 646.694 235.428 646.732 226.846C646.735 226.269 646.741 225.692 646.75 225.115C645.215 227.048 642.624 230.96 639.963 230.948C633.804 230.92 632.541 225.181 632.766 220.177C633.212 210.247 638.849 201.703 642.031 192.535C642.755 190.448 642.952 184.092 642.969 181.686L641.592 182.018C640.626 185.319 636.621 194.926 631.788 193.726C623.586 191.69 626.057 177.799 626.82 171.528C616.713 174.807 616.952 165.775 616.771 158.32C616.493 146.852 614.974 140.853 608.14 131.729C610.431 137.996 616.809 154.656 609.36 159.112C602.828 159.939 598.376 146.712 596.586 141.768C595.313 144.619 595.021 146.626 591.731 147.198C589.691 146.621 589.368 146.12 587.72 144.659C582.871 142.888 578.624 139.033 574.333 139.95C557.417 133.535 535.263 137.1 529.723 156.656L528.516 154.665C525.98 157.569 527.598 166.177 530.368 168.936C535.785 157.344 549.306 158.64 553.194 170.074C554.543 174.026 554.262 178.353 552.413 182.098C550.392 186.143 545.334 190.319 540.981 191.199C514.502 196.547 494.889 161.638 507.935 139.813C510.465 135.582 513.252 131.818 515.666 127.724C516.986 123.844 520.209 117.466 522.042 113.561L521.004 108.103Z"/><path fill="#F89386" d="M530.368 168.936C534.366 173.753 533.744 175.97 541.085 174.425C542.395 174.149 543.329 174.021 544.617 174.425L544.58 175.472C541.147 180.622 537.277 180.713 531.55 178.913C526.049 177.179 521.502 173.26 518.976 168.075C515.28 160.595 515.532 151.429 518.14 143.746C525.496 122.074 558.491 113.595 576.292 127.105C582.355 131.707 584.79 137.966 587.72 144.659C582.871 142.888 578.624 139.033 574.333 139.95C557.417 133.535 535.263 137.1 529.723 156.656L528.516 154.665C525.98 157.569 527.598 166.177 530.368 168.936Z"/><path fill="#F89386" d="M521.004 108.103C522.428 105.415 524.038 101.578 526.864 100.665L527.607 101.364C524.322 110.837 530.594 120.763 515.666 127.724C516.986 123.844 520.209 117.466 522.042 113.561L521.004 108.103Z"/><path fill="#503434" d="M641.592 182.018C641.854 180.464 641.884 178.703 642.758 177.649C643.071 179.614 643.108 179.724 642.969 181.686L641.592 182.018Z"/><path fill="#F87567" d="M279.808 867.54C288.428 854.229 299.621 870.399 304.989 877.622L308.621 871.888C318.2 881.876 318.348 889.279 317.942 902.256C321.258 899.204 322.43 897.807 325.226 894.226C338.452 908.048 327.882 923.042 324.692 938.69C323.19 946.06 323.297 948.892 324.232 956.191C326.322 943.471 325.986 939.536 335.566 930.491C342.503 938.559 338.51 943.071 340.872 952.168L342.751 951.946C352.54 950.714 350.369 972.472 353.591 979.117C356.458 985.028 357.245 986.013 361.892 990.862C359.45 985.515 351.092 968.479 358.673 964.597C365.019 964.391 369.679 975.813 371.634 980.667C372.729 977.481 372.863 974.731 376.14 973.415C385.678 975.184 384.096 990.924 395.276 991.205C406.655 991.492 416.971 984.68 423.858 976.086C432.692 965.063 431.695 945.042 414.697 943.364C411.758 943.072 409.499 944.612 407.475 946.602C407.47 946.866 407.465 947.13 407.46 947.393C412.007 948.139 412.082 947.27 414.972 950.762L415.465 952.768C414.388 954.667 412.504 957.578 410.302 957.742C398.913 958.643 393.607 947.597 400.43 938.599C407.771 928.918 422.325 930.817 430.088 937.781C447.835 953.701 435.697 968.507 429.057 985.391C427.721 988.788 430.199 996.449 427.29 1001.25C425.397 1002.3 421.966 999.548 420.185 998.417C417.491 1007.1 420.328 1010.55 409.182 1008.68C410.771 1019 411.476 1021.67 401.455 1027.08C384.533 1025.54 375.992 1015.93 383.083 999.089L382.707 997.181C340.455 990.057 321.344 968.5 310.395 927.916C307.574 917.46 306.183 909.229 301.574 899.173C295.354 885.6 274.695 878.099 267.911 894.789C263.974 905.297 274.398 906.256 281.725 906.711C282.828 906.779 283.514 907.887 283.939 908.894C283.446 911.597 282.322 912.515 280.754 914.567C276.103 920.656 271.211 920.205 264.326 919.944C261.938 918.352 258.581 915.117 256.34 913.082C239.486 914.605 250.279 903.731 247.511 897.914C246.772 897.53 244.612 896.456 244.29 895.891C240.941 890.028 255.272 880.609 258.306 878.246C258.332 871.386 259.449 870.265 265.015 866.777C270.115 866.361 274.769 866.971 279.808 867.54Z"/><path fill="#503434" d="M382.707 997.181C393.089 997.322 393.718 997.583 403.589 994.923C395.495 1000.38 389.958 997.854 383.083 999.089L382.707 997.181Z"/><path fill="#F87567" d="M691.237 856.164C695.196 856.966 696.56 858.476 698.978 861.475C704.216 861.409 710.546 861.715 715.018 864.755C717.276 866.29 717.844 867.487 718.31 870.175C718.349 870.397 718.381 870.621 718.416 870.843C720.435 872.82 723.075 873.9 725.481 875.335C729.209 877.557 731.447 880.608 732.371 884.869C733.153 888.476 732.362 890.887 730.368 893.888C728.481 896.729 728.082 899.596 727.289 902.847C726.357 906.667 723.833 913.237 720.212 915.15C719.157 915.707 717.986 915.788 716.864 915.389C714.547 914.565 713.666 912.465 712.592 910.453C709.059 911.332 705.404 912.317 701.799 912.799C697.468 913.377 693.195 912.298 689.823 909.467C687.677 907.665 686.214 904.621 686.004 901.838C685.216 891.365 699.701 896.058 703.526 890.239C704.475 888.796 704.47 887.41 704.004 885.811C702.808 881.697 700.711 878.476 696.8 876.549C693.807 875.074 689.317 875.964 686.337 877.094C664.318 885.447 660.406 914.812 655.041 934.454C653.247 941.054 650.927 947.498 648.102 953.726C635.27 981.485 609.156 995.6 578.886 994.534C575.553 994.416 572.197 994.329 568.957 993.494C567.606 993.146 565.423 992.221 564.171 992.68C571.587 997.774 584.842 993.562 590.665 998.961C593.14 1001.26 593.754 1004.85 593.79 1008.08C593.843 1012.78 592.619 1017.51 589.157 1020.88C586.387 1023.59 582.057 1025.8 578.112 1025.62C575.135 1025.49 572.479 1024.13 570.477 1021.95C566.574 1017.7 566.713 1012.81 566.844 1007.45C564.946 1008.85 563.409 1009.87 560.981 1009.6C557.467 1007.84 556.626 1001.9 555 998.439C553.124 999.696 551.25 1001.28 548.942 1001.22C545.315 997.287 547.773 990.831 545.755 986.146C543.563 981.059 538.517 976.956 535.065 972.649C533.918 970.889 532.991 968.996 532.303 967.011C530.002 960.235 530.366 952.162 533.53 945.729C536.588 939.51 542.12 934.079 548.795 931.938C553.472 930.438 558.791 930.58 563.125 933.031C566.953 935.196 570.022 939.279 571.026 943.57C571.61 946.066 571.324 948.587 569.899 950.749C568.195 953.335 565.216 955.195 562.175 955.702C559.803 956.098 556.918 955.74 554.958 954.251C553.996 953.52 553.346 952.509 553.375 951.258C553.416 949.523 554.486 947.914 555.72 946.791C558.161 945.919 560.802 946.463 563.335 946.711C560.195 944.838 556.944 943.405 553.587 941.967C548.961 943.666 545.127 945.239 542.101 949.432C539.234 953.406 538.577 958.319 539.307 963.075C540.523 971.004 545.378 977.833 551.843 982.427C559.765 988.056 567.885 989.638 577.371 988.116C581.138 983.779 583.915 977.825 588.704 974.507C590.204 973.468 591.156 973.371 592.902 973.74C593.87 974.652 594.242 975.176 594.641 976.462C594.939 977.419 595.203 978.157 595.743 979.018C600.017 974.897 600.896 968.899 606.699 965.955C608.166 965.21 609.03 965.243 610.544 965.787C611.297 966.608 611.887 967.288 612.236 968.365C614.365 974.924 608.441 984.559 605.659 990.31C609.616 985.862 613.018 981.463 615.157 975.842C618.892 966.022 617.895 958.223 625.025 949.548L629.66 952.673C629.662 950.519 629.747 948.366 629.915 946.219C630.219 942.2 631.638 932.681 635.375 930.317C636.5 929.605 637.208 929.518 638.457 929.995C642.21 931.428 645.407 943.523 647.434 947.326C647.217 932.026 638.674 918.419 638.328 904.542C638.177 898.529 640.403 893.362 644.526 889.085C647 891.861 649.359 894.753 651.761 897.591C653.14 884.123 659.398 876.496 667.505 866.17C668.335 867.823 669.147 869.295 670.27 870.768C671.489 871.358 671.788 871.649 673.145 871.166C677.704 869.541 680.166 858.738 691.237 856.164Z"/><path fill="#F89386" d="M485.366 136.065C478.333 135.679 474.892 134.161 468.961 129.866C454.308 119.105 438.054 102.529 435.026 83.8335C432.066 65.5544 444.676 46.1321 463.272 43.2279C467.22 43.1439 475.398 44.2594 478.854 45.7258C491.515 46.4822 495.264 40.0035 508.708 45.3511C525.246 53.2064 532.938 69.7207 528.228 87.3858C523.801 107.907 502.334 125.381 485.366 136.065ZM482.303 69.3622C480.001 68.4848 479.061 68.1765 476.945 66.8711C472.796 65.2078 467.194 63.4028 463.042 65.7052C444.485 75.9959 460.821 97.043 471.13 106.434C472.767 107.926 480.316 114.384 480.982 115.695C489.007 112.655 502.944 97.1063 506.634 88.7336C513.149 73.9512 505.167 58.649 487.886 66.4792C486.141 67.498 484.126 68.4504 482.303 69.3622Z"/><path fill="#F87567" d="M478.854 45.7258C491.515 46.4822 495.264 40.0035 508.708 45.3511C525.246 53.2064 532.938 69.7207 528.228 87.3858C526.492 84.32 529.139 78.314 527.702 74.3738L527.127 74.2173C526.497 75.1684 524.407 78.4582 523.504 78.67C517.431 80.0945 515.796 75.3621 516.917 70.9416C520.763 66.9602 524.655 71.9669 526.739 71.3146L527.339 69.8867C527.057 64.5235 517.502 50.5733 512.375 49.3643C512.534 51.7367 513.181 55.7839 510.954 57.1982C508.197 58.9483 505.529 57.8379 503.723 55.5418C502.255 50.702 505.47 49.3426 509.289 47.6841C506.364 45.3729 499.204 43.6036 496.357 46.2161C499.171 48.3346 501.146 49.9973 499.731 53.5994C494.912 58.0069 486.034 54.0031 493.147 46.8773L492.205 45.9841C488.973 46.1363 485.14 46.7615 482.079 47.8235L482.414 48.3669C485.487 49.8811 489.356 53.3264 486.525 56.9472C485.495 58.2613 483.959 59.0809 482.293 59.2049C476.168 59.6351 476.78 52.6791 481.044 48.8936L481.544 48.1715L481.392 47.5752L478.843 46.9337C476.705 46.3393 473.772 45.1889 471.915 46.5923C472.905 49.1671 477.419 53.7343 471.486 55.918C470.048 56.4477 465.996 55.4048 465.587 53.7427C464.831 50.6719 467.247 48.3499 466.542 44.9199C465.332 43.2098 465.926 43.7513 463.272 43.2279C467.22 43.1439 475.398 44.2594 478.854 45.7258Z"/><path fill="#974942" d="M487.567 64.4674C499.066 61.3312 514.179 61.454 511.758 77.9947C510.787 84.63 513.595 82.7112 509.66 89.7865C506.592 95.3023 486.517 120.644 480.345 117.419C473.362 114.021 469.741 109.3 464.564 103.843C450.258 88.7637 442.886 59.0791 474.736 63.3205C477.76 63.7233 479.505 65.0036 481.204 67.5739C483.082 66.8017 485.212 65.4592 487.567 64.4674ZM482.303 69.3622C480.001 68.4848 479.061 68.1765 476.945 66.8711C472.796 65.2078 467.194 63.4028 463.042 65.7052C444.485 75.9959 460.821 97.043 471.13 106.434C472.767 107.926 480.316 114.384 480.982 115.695C489.007 112.655 502.944 97.1063 506.634 88.7336C513.149 73.9512 505.167 58.649 487.886 66.4792C486.141 67.498 484.126 68.4504 482.303 69.3622Z"/><path fill="#503434" d="M481.204 67.5739C483.082 66.8017 485.212 65.4592 487.567 64.4674L487.886 66.4792C486.141 67.498 484.126 68.4504 482.303 69.3622C480.001 68.4848 479.061 68.1765 476.945 66.8711L477.567 66.1975C478.369 66.522 480.558 67.4786 481.204 67.5739Z"/><path fill="#F87567" d="M442.032 69.0056C444.683 68.5421 447.222 70.2686 447.766 72.904C448.31 75.5394 446.661 78.1298 444.043 78.7532C442.278 79.1737 440.423 78.6002 439.203 77.2566C437.984 75.913 437.591 74.012 438.18 72.2953C438.768 70.5786 440.245 69.3181 442.032 69.0056Z"/><path fill="#F87567" d="M455.666 103.107C458.288 102.353 461.026 103.865 461.784 106.486C462.543 109.107 461.035 111.848 458.415 112.61C455.789 113.375 453.041 111.863 452.28 109.235C451.52 106.608 453.037 103.863 455.666 103.107Z"/><path fill="#F87567" d="M441.827 62.3879C444.921 53.8306 450.789 55.2144 452.969 62.9183C448.645 67.6001 445.75 67.9829 441.827 62.3879Z"/><path fill="#F87567" d="M454.994 48.8096C457.478 47.7398 460.359 48.8778 461.441 51.3558C462.523 53.8338 461.399 56.7204 458.926 57.8145C456.436 58.9164 453.525 57.783 452.435 55.2877C451.346 52.7924 452.494 49.8868 454.994 48.8096Z"/><path fill="#F87567" d="M473.392 119.279C479.604 119.549 482.941 123.934 478.215 129.302C470.017 129.043 468.845 125.458 473.392 119.279Z"/><path fill="#F87567" d="M442.394 81.8282C444.848 80.9032 447.594 82.0903 448.602 84.5119C449.609 86.9336 448.516 89.718 446.129 90.807C444.512 91.5449 442.621 91.3423 441.197 90.2785C439.773 89.2146 439.043 87.4589 439.292 85.699C439.541 83.939 440.73 82.455 442.394 81.8282Z"/><path fill="#F87567" d="M506.33 103.734C508.768 103.051 511.319 104.367 512.175 106.749C513.031 109.131 511.902 111.769 509.587 112.794C507.935 113.526 506.012 113.273 504.605 112.139C503.197 111.006 502.541 109.181 502.905 107.411C503.268 105.641 504.59 104.222 506.33 103.734Z"/><path fill="#F87567" d="M513.258 93.5311C515.692 92.4663 518.527 93.5834 519.581 96.0221C520.634 98.4608 519.504 101.291 517.06 102.333C514.633 103.369 511.825 102.247 510.778 99.8246C509.731 97.4019 510.84 94.5889 513.258 93.5311Z"/><path fill="#F87567" d="M486.499 119.839C492.806 120.912 496.02 123.482 490.424 128.853C483.31 129.026 481.709 125.05 486.499 119.839Z"/><path fill="#F87567" d="M496.654 112.188C498.971 111.277 501.591 112.389 502.545 114.689C503.499 116.989 502.435 119.629 500.153 120.626C498.639 121.287 496.885 121.079 495.568 120.081C494.25 119.084 493.574 117.453 493.799 115.817C494.024 114.18 495.116 112.792 496.654 112.188Z"/><path fill="#F87567" d="M447.231 93.1834C453.801 94.4946 455.709 97.6275 450.944 102.903C444.798 101.777 442.191 98.2 447.231 93.1834Z"/><path fill="#F87567" d="M463.616 111.178C469.582 112.155 472.53 114.948 468.183 120.482C460.884 120.534 460.281 116.82 463.616 111.178Z"/><path fill="#F87567" d="M518.539 82.9098C519.898 82.2955 521.482 82.4614 522.685 83.3437C523.888 84.226 524.521 85.6879 524.343 87.1687C524.165 88.6495 523.203 89.9194 521.825 90.4914C519.74 91.3572 517.347 90.3898 516.449 88.3187C515.551 86.2476 516.481 83.8394 518.539 82.9098Z"/><path fill="#F87567" d="M217.144 686.036C218.24 687.293 228.48 721.499 230.23 726.436C234.279 737.857 238.604 749.561 243.707 760.556C265.447 807.403 298.767 852.034 339.332 884.198C385.256 920.61 443.682 941.001 502.55 936.963C508.116 936.581 513.783 936.138 519.271 935.122C528.204 933.469 536.833 931.034 545.892 929.987C543.616 931.193 541.21 932.46 539.174 934.047C532.072 939.584 529.326 947.23 528.161 955.89C517.893 947.202 512.751 943.569 498.972 944.612C494.279 945.398 489.971 946.861 485.597 948.706C479.745 946.044 474.024 944.219 467.526 944.386C456.743 944.664 449.112 949.713 441.949 957.352C441.375 949.564 439.028 942.594 433.435 936.947C428.532 931.997 421.764 928.857 414.738 928.913C407.097 928.974 402.14 932.389 396.926 937.564L382.019 931.38C380.375 926.52 378.24 922.049 374.09 918.802C366.97 913.232 357.703 913.726 349.267 914.802C344.788 911.933 340.143 909.227 336.838 904.952C333.681 900.869 331.578 895.286 327.498 891.989C326.418 891.116 325.212 891.238 323.917 891.374C323.23 891.446 322.546 891.489 321.857 891.533C319.241 887.09 318.867 881.114 316.611 876.282C315.346 873.574 313.895 871.12 310.882 870.156C308.348 869.347 306.817 870.359 304.613 871.534C300.586 867.012 295.74 861.146 289.411 860.064C284.562 859.234 281.825 861.164 278.023 863.75C274.19 864.087 270.224 863.672 266.385 863.474C266.984 862.01 267.605 860.523 268.026 858.996C270.624 849.554 267.353 841.357 262.699 833.237C264.936 830.532 266.722 827.954 266.382 824.227C265.657 816.29 254.105 812.457 248.842 807.71L248.369 807.277C249.144 806.263 250.039 805.088 250.489 803.879C251.204 801.957 250.881 799.703 249.924 797.93C246.789 792.118 238.018 789.933 232.153 788.11C237.299 781.479 241.181 774.362 241.32 765.768C241.442 758.256 238.769 750.465 233.423 745.081C227.63 739.247 220.889 738.318 213.051 738.246C207.321 727.728 205.846 715.531 201.58 704.425C204.363 703.553 207.219 702.582 209.631 700.899C214.929 697.2 216.166 692.024 217.144 686.036Z"/><path fill="#F87567" d="M485.481 952.27C492.034 949.234 499.035 947.03 506.33 947.77C513.61 948.509 520.391 951.78 524.956 957.58C529.736 963.651 531.036 970.812 530.015 978.366C527.817 994.646 513.154 1008.2 500.781 1017.61C496.223 1021.3 490.975 1024.22 485.869 1027.08C481.778 1025.31 477.822 1023.08 474.121 1020.6C460.577 1011.55 444.049 995.409 440.942 978.696C439.643 971.712 440.84 964.654 445.005 958.813C449.669 952.274 457.092 949.119 464.782 947.856C472.254 947.452 478.604 949.705 485.481 952.27Z"/><path fill="#974942" d="M466.545 960.496C473.86 960.225 479.248 962.687 485.576 966.095C491.048 963.42 496.491 960.535 502.773 960.725C506.904 960.851 511.149 962.259 514.001 965.36C517.197 968.834 518.193 973.852 517.895 978.445C517.18 989.47 509.285 997.737 501.398 1004.59C496.681 1008.62 491.604 1011.98 486.317 1015.19C473.983 1009.37 461.526 999.711 455.679 987.063C453.388 982.108 451.998 976.006 454.148 970.764C456.462 965.124 461.296 962.729 466.545 960.496Z"/><path fill="#F87567" d="M467.475 963.714C474.259 963.71 478.833 968.341 485.145 968.66C490.834 968.948 495.825 964.104 501.572 963.712C504.747 963.495 508.149 964.243 510.547 966.437C513.586 969.217 514.608 973.685 514.605 977.658C514.595 988.519 507.082 994.961 499.941 1001.99C495.434 1005.74 490.815 1008.89 485.655 1011.68C474.939 1005.49 464.624 997.824 458.948 986.496C456.866 982.338 455.379 977.247 457.071 972.709C458.878 967.866 463.053 965.661 467.475 963.714Z"/><path fill="#F87567" d="M217.158 455.706C226.994 412.112 243.764 370.38 266.829 332.102C304.523 270.853 363.441 219.348 434.514 202.136C493.537 187.842 555.339 200.195 606.548 232.25C678.335 277.186 725.913 354.406 749.443 434.469C752.247 444.01 750.44 446.379 751.782 455.637C752.306 457.673 754.572 460.642 755.001 462.512C756.64 469.658 759.669 476.86 761.332 483.89C760.478 485.304 759.703 486.966 758.96 488.463C759.559 492.036 760.366 494.48 758.728 497.716C756.701 496.366 754.022 476.17 753.274 472.305C745.978 436.06 733.964 400.928 717.539 367.804C683.025 298.995 627.943 237.731 553.39 212.861C496.721 193.957 436.868 199.568 384.114 227.029C310.545 265.324 259.961 338.089 234.602 415.31C230.656 426.883 227.195 438.615 224.226 450.476C223.649 452.773 221.478 463.251 220.533 464.547C219.737 464.302 219.902 464.417 219.723 464.245C218.97 460.456 218.59 459.309 217.158 455.706Z"/><path fill="#F87567" d="M752.408 664.739L755.718 672.539C750.928 693.35 745.814 711.376 738.437 731.405C692.839 855.206 575.755 961.754 436.085 928.832C363.969 911.834 306.608 861.622 267.743 799.559C249.293 769.866 226.098 719.304 220.158 684.368L220.52 683.755C222.062 681.112 222.285 680.44 223.082 677.468C223.693 678.411 231.237 705.699 232.679 710.135C236.307 721.339 240.408 732.384 244.97 743.241C280.865 828.784 349.029 904.841 442.707 924.896C496.985 936.467 553.637 926.362 600.567 896.737C666.822 856.387 704.91 799.312 733.326 728.238C738.548 714.198 743.266 699.982 747.368 685.565C749.393 678.446 749.4 671.775 752.408 664.739Z"/><path fill="#F87567" d="M731.942 753.056C732.246 753.936 732.183 753.583 732.272 754.463C733.25 764.172 735.673 770.34 742.503 777.384C739.061 778.248 735.791 779.193 732.674 780.934C729.635 782.631 726.742 785 725.879 788.53C725.107 791.691 726.325 793.834 727.949 796.429C719.838 799.973 712.05 803.519 708.202 811.951C708.424 814.046 708.906 816.585 708.474 818.657C706.873 826.318 699.009 833.497 701.21 841.927C702.219 845.796 704.686 847.474 707.958 849.283C708.486 852.625 708.834 856.014 709.261 859.372L701.339 858.707C700.374 857.711 699.387 856.75 698.268 855.925C695.682 854.017 692.511 853.313 689.346 853.873C681.976 855.177 676.628 861.844 672.688 867.653C671.801 866.261 671.085 865.239 669.77 864.227C668.499 863.88 667.572 863.687 666.283 864.088C658.967 866.36 652.916 882.319 649.527 888.864C648.116 887.908 646.274 886.646 644.547 886.482C643.118 886.347 642.136 886.799 641.069 887.705C635.836 892.15 634.991 899.899 634.349 906.276C630.925 908.842 627.461 911.353 623.959 913.81C621.877 913.435 619.79 913.094 617.697 912.786C611.233 911.884 603.953 912.749 598.697 916.913C594.476 920.257 592.804 924.657 592.239 929.827C588.988 931.223 585.682 932.506 582.399 933.827C579.207 935.055 576.091 936.546 572.966 937.939C571.652 936.365 570.311 934.842 568.814 933.437C563.448 928.402 558.462 927.887 551.475 928.122C557.192 925.14 563.43 923.571 569.449 921.332C584.662 915.673 599.45 907.572 613.008 898.695C666.757 863.507 705.476 810.909 731.942 753.056Z"/><path fill="#F87567" d="M162.385 417.627C163.009 418.47 161.178 428.353 161.198 430.421C161.258 436.589 162.977 442.929 165.544 448.508C169.063 456.157 173.972 461.894 181.961 464.894L182.37 464.776C185.637 463.808 189.383 462.526 190.99 459.251C193.933 453.252 187.6 449.302 186.398 444.109C186.045 442.585 186.412 441.915 187.135 440.598C188.935 439.265 190.72 438.671 192.948 438.39C196.945 437.886 200.719 439.824 203.748 442.307C208.101 445.875 208.801 450.944 209.292 456.17C211.715 456.819 214.437 457.249 215.851 459.574C217.627 462.493 216.175 466.702 215.431 469.777C214.296 472.677 213.022 475.264 210.95 477.635C209.55 479.237 207.203 479.999 206.546 481.649C208.654 482.438 209.186 482.165 209.848 483.617C206.825 488.126 201.557 487.499 197.002 487.689C163.771 489.073 128.018 441.556 162.385 417.627Z"/><path fill="#F87567" d="M771.648 637.791C776.077 637.536 779.889 637.793 784.168 639.035C795.563 642.343 803.575 649.214 809.181 659.582C814.736 669.854 818.772 683.036 815.228 694.626C812.244 704.388 804.945 708.245 796.521 712.776C798.449 700.242 801.077 694.604 800.085 681.271C799.081 675.263 797.787 669.619 794.538 664.376C792.873 661.689 790.285 658.446 787.004 657.818C785.629 657.555 784.395 657.909 783.332 658.787C779.468 661.976 779.017 669.499 778.706 674.13C779.033 674.59 779.352 675.059 779.686 675.513C780.504 676.626 781.487 677.751 782.013 679.039C782.624 680.533 782.685 682.392 781.97 683.861C781.325 685.188 780.187 685.91 778.812 686.313C775.75 687.211 772.027 686.377 769.315 684.818C765.087 682.387 764.576 677.462 763.422 673.134C761.359 672.348 759.336 671.636 757.931 669.837C756.372 667.842 755.782 665.377 756.11 662.882C756.938 656.6 761.649 652.126 766.296 648.363C765.267 647.302 764.112 646.109 763.585 644.699C763.139 643.508 763.245 642.094 763.937 641.017C765.427 638.696 769.147 638.222 771.648 637.791Z"/><path fill="#F87567" d="M804.317 407.694C806.909 409.03 809.846 411.454 811.822 413.631C824.626 427.736 814.641 451.369 802.374 462.282C793.619 470.07 780.328 473.695 768.792 472.918C765.885 472.722 760.89 471.737 760.061 468.199C759.108 463.187 760.33 462.555 756.692 458.389C754.919 455.151 752.441 449.217 755.232 446.349C756.511 445.034 759.308 445.062 761.028 444.907C761.351 441.097 761.717 438.315 763.73 434.933C766.815 429.752 775.23 426.033 780.72 429.61C783.03 434.164 777.22 439.475 777.901 442.883C779.632 451.553 789.504 450.648 793.952 444.814C803.398 432.426 805.365 422.476 804.317 407.694Z"/><path fill="#F89386" d="M339.893 925.791C347.193 920.272 350.884 915.354 361.147 917.03C370.245 918.515 380.035 924.469 377.778 935.052C376.806 939.612 373.414 944.722 367.978 943.422C363.142 942.072 361.554 936.745 359.956 932.505C356.607 935.003 355.367 935.914 353.299 939.744C353.19 941.741 352.878 945.715 353.363 947.549C356.572 959.332 371.068 964.128 381.439 967.44C387.481 969.37 394.753 969.284 400.988 968.478C407.595 967.624 419.541 960.769 415.465 952.768L414.972 950.762C415.48 948.073 415.019 948.3 416.564 946.533C422.025 945.173 425.322 953.08 426.151 957.291C429.077 972.158 414.367 985.378 400.863 987.843C383.818 991.354 388.713 970.91 375.907 970.023C374.307 969.913 372.229 971.562 371.032 972.61C368.147 968.103 361.894 959.282 355.617 961.789C354.816 962.675 354.021 963.541 353.244 964.449C351.741 955.032 351.071 952.01 343.776 945.749C343.204 936.552 341.894 933.26 335.542 926.395C333.608 927.939 331.334 929.869 329.304 931.214C331.243 925.183 331.531 921.079 338.537 925.042L339.893 925.791Z"/><path fill="#F87567" d="M211.847 767.409C208.589 765.553 206.832 763.017 205.95 759.355C204.995 755.28 205.678 750.993 207.851 747.417C212.669 739.591 223.956 740.48 229.552 745.527C247.243 761.481 237.993 789.246 214.959 792.084C213.704 792.227 212.444 792.328 211.182 792.387C211.55 793.371 211.227 793.093 211.92 793.43C210.545 793.74 210.407 793.872 209.034 793.711C203.616 793.926 200.058 793.5 194.708 792.747L198.91 791.613C201.975 791.676 204.065 790.413 206.608 788.979C207.25 787.325 207.705 786.327 208.502 784.742C209.494 784.738 210.512 784.77 211.49 784.664C207.53 774.433 204.134 774.662 194.607 771.415C188.506 761.634 184.072 760.907 173.541 756.972C177.78 755.902 178.474 755.672 181.513 752.554C184.485 754.497 186.182 756.655 188.774 758.681C194.295 762.996 203.35 767.46 210.363 768.308C211.098 768.397 210.985 768.164 211.847 767.409Z"/><path fill="#F89386" d="M173.541 756.972C177.78 755.902 178.474 755.672 181.513 752.554C184.485 754.497 186.182 756.655 188.774 758.681C194.295 762.996 203.35 767.46 210.363 768.308C211.098 768.397 210.985 768.164 211.847 767.409L212.823 767.802C214.177 768.896 214.443 768.846 216.086 768.946C221.315 767.121 220.347 760.273 222.804 759.055C224.724 760.118 226.448 763.093 227.029 765.172C230.611 778.004 222.106 783.055 212.399 787.777L211.49 784.664C207.53 774.433 204.134 774.662 194.607 771.415C188.506 761.634 184.072 760.907 173.541 756.972Z"/><path fill="#974942" d="M212.823 767.802C215.493 767.286 217.338 766.589 218.937 764.319C219.81 759.437 215.792 758.088 216.009 755.056C225.817 750.939 234.323 769.262 228.149 778.381C223 785.987 217.23 790.082 208.238 791.42L211.182 792.387C211.55 793.371 211.227 793.093 211.92 793.43C210.545 793.74 210.407 793.872 209.034 793.711C203.616 793.926 200.058 793.5 194.708 792.747L198.91 791.613C201.975 791.676 204.065 790.413 206.608 788.979C207.25 787.325 207.705 786.327 208.502 784.742C209.494 784.738 210.512 784.77 211.49 784.664L212.399 787.777C222.106 783.055 230.611 778.004 227.029 765.172C226.448 763.093 224.724 760.118 222.804 759.055C220.347 760.273 221.315 767.121 216.086 768.946C214.443 768.846 214.177 768.896 212.823 767.802Z"/><path fill="#503434" d="M211.49 784.664L212.399 787.777C210.146 788.841 209.064 788.796 206.608 788.979C207.25 787.325 207.705 786.327 208.502 784.742C209.494 784.738 210.512 784.77 211.49 784.664Z"/><path fill="#503434" d="M209.034 793.711C208.346 793.341 206.991 792.835 206.218 792.515L206.203 791.991L208.238 791.42L211.182 792.387C211.55 793.371 211.227 793.093 211.92 793.43C210.545 793.74 210.407 793.872 209.034 793.711Z"/><path fill="#F87567" d="M477.971 138.569C492.433 137.79 499.833 146.794 498.707 160.885C497.902 170.953 492.036 179.54 484.492 185.952C471.693 189.444 450.702 151.103 477.971 138.569Z"/><path fill="#974942" d="M479.197 141.755C497.26 141.322 498.87 158.716 492.536 171.386C490.297 175.865 487.837 178.367 484.242 181.807C473.759 186.258 456.634 149.403 479.197 141.755Z"/><path fill="#F87567" d="M479.104 143.911C494.299 142.875 495.464 158.201 491.033 168.872C489.157 173.39 486.925 175.969 483.555 179.443C483.208 179.668 482.319 179.931 481.882 180.083C474.225 177.724 468.483 160.464 471.151 153.128C473.148 147.635 474.301 146.503 479.104 143.911Z"/><path fill="#F87567" d="M207.117 349.756C211.695 350.217 216.914 350.621 221.413 351.31C225.859 355.202 227.508 356.913 230.552 361.913C238.217 374.504 232.369 397.045 215.216 397.208C210.498 397.255 205.968 395.358 202.691 391.963C195.238 384.338 196.597 370.23 209.374 369.874C213.785 369.751 218.15 375.771 216.235 380.48L217.083 381.596C221.499 373.808 216.064 368.71 208.4 367.375C208.565 366.662 211.234 362.853 211.824 361.982C211.625 359.496 210.564 355.911 211.658 354.078L212.909 354.5L212.877 353.386C210.858 352.2 209.194 352.048 206.633 350.325L207.117 349.756Z"/><path fill="#F89386" d="M211.824 361.982C211.625 359.496 210.564 355.911 211.658 354.078L212.909 354.5C222.146 363.236 230.548 371.956 219.256 384.525C217.795 386.152 213.468 387.953 211.193 387.533L210.608 386.56C211.611 383.772 214.242 384.121 217.083 381.596C221.499 373.808 216.064 368.71 208.4 367.375C208.565 366.662 211.234 362.853 211.824 361.982Z"/><path fill="#503434" d="M212.877 353.386C218.631 355.827 222.953 359.115 225.363 365.201C227.254 370.064 227.148 375.478 225.068 380.264C222.511 386.037 215.864 391.69 209.297 388.298C207.429 387.333 206.301 386.418 205.537 384.456C207.082 382.595 211.739 383.872 216.235 380.48L217.083 381.596C214.242 384.121 211.611 383.772 210.608 386.56L211.193 387.533C213.468 387.953 217.795 386.152 219.256 384.525C230.548 371.956 222.146 363.236 212.909 354.5L212.877 353.386Z"/><defs><linearGradient id="gradient_1" gradientUnits="userSpaceOnUse" x1="524.22321" y1="118.57767" x2="556.37518" y2="77.031731"><stop offset="0" stop-color="#E0776E"/><stop offset="1" stop-color="#FFCBC5"/></linearGradient></defs><path fill="url(#gradient_1)" d="M530.835 88.2524C531.197 84.0072 531.412 75.7796 534.892 73.0223C541.929 67.4464 554.421 72.1976 559.042 78.9984C565.625 88.6856 560.553 102.326 555.72 111.691C538.614 115.238 539.27 116.995 525.392 124.5C526.607 121.898 529.124 117.941 531.063 115.839C537.217 111.907 548.067 99.0212 545.075 91.4486C540.982 87.6944 538.078 95.4997 530.835 88.2524Z"/><path fill="#F87567" d="M758.216 674.147C765.273 679.156 759.981 684.37 773.946 689.919C770.641 703.337 767.013 716.422 762.383 729.451C757.647 728.804 753.852 728.377 749.178 729.65C745.337 731.488 741.918 734.092 738.448 736.537C747.151 716.186 751.354 695.029 758.216 674.147Z"/><path fill="#F87567" d="M606.729 161.296C609.406 160.631 611.646 160.463 614.371 160.175C614.901 164.831 615.32 168.682 616.282 173.294C617.89 174.171 620.559 175.371 620.639 177.207C621.301 192.466 601.116 206.414 588.112 197.99C584.969 195.997 582.811 192.772 582.168 189.106C580.631 180.023 588.86 169.556 597.915 176.148C600.519 178.045 598.509 182.153 597.537 184.346C606.737 182.232 606.334 168.64 606.729 161.296Z"/><path fill="#F89386" d="M606.729 161.296C609.406 160.631 611.646 160.463 614.371 160.175C614.901 164.831 615.32 168.682 616.282 173.294C613.903 180.029 611.885 185.756 605.236 189.532C601.247 191.798 592.844 191.477 591.338 186.421C592.494 185.112 595.297 185.254 597.537 184.346C606.737 182.232 606.334 168.64 606.729 161.296Z"/><path fill="#F87567" d="M746.905 342.743L752.139 342.246C739.422 352.093 733.801 368.819 751.51 377.036C753.65 376.374 755.979 375.895 757.638 374.498C757.181 372.636 752.63 373.437 751.381 371.447C745.241 361.668 755.067 355.092 763.247 366.702C770.001 382.748 752.317 391.109 739.777 381.726C734.931 378.127 731.825 372.653 731.222 366.647C730.266 357.399 734.504 350.45 740.059 343.589L746.905 342.743Z"/><path fill="#F87567" d="M405.001 112.627C401.699 108.048 399.367 103.22 398.75 97.5501C398.056 91.2642 399.937 84.9651 403.965 80.0891C412.132 70.1933 423.463 70.9272 432.5 79.0446L432.677 84.4039C432.788 96.954 418.71 98.1887 418.437 87.2857C419.788 84.4076 421.012 82.7395 422.811 80.1287C418.853 81.0443 413.382 82.0938 410.936 85.4353C401.528 98.287 414.846 109.727 422.709 116.398C416.61 114.803 411.202 113.788 405.001 112.627Z"/><path fill="#F87567" d="M197.451 546.406C198.589 546.667 199.713 546.997 200.84 547.302C201.854 548.441 201.775 548.864 201.926 550.396C202.487 556.09 202.065 562.13 202.155 567.872C202.267 574.996 203.043 582.709 202.342 589.776C202.203 591.179 201.971 593.035 200.963 594.113C200.342 594.777 200.041 594.604 199.186 594.675C195.961 592.86 195.461 588.693 194.523 585.39C191.509 578.236 186.113 574.038 180.07 569.533C189.722 563.273 194.625 557.628 197.451 546.406Z"/><path fill="#F87567" d="M770.256 534.972C771.281 534.906 773.772 534.583 774.652 534.946C776.035 535.514 779.891 545.201 781.373 547.18C784.151 550.888 787.464 553.081 791.362 555.464C785.533 559.794 781.115 563.742 777.175 569.875C775.237 573.567 774.786 578.957 771.894 581.988L771.052 581.635C770.3 579.757 769.833 538.415 770.256 534.972Z"/><path fill="#F87567" d="M759.494 513.043C759.673 513.118 759.855 513.187 760.031 513.269C765.999 516.034 763.58 522.543 764.456 527.857C764.848 530.234 766.175 532.414 766.987 534.673C769.798 542.497 769.436 570.361 768.325 579.262C767.754 583.833 766.295 588.208 765.574 592.735C765.226 594.925 766.242 598.226 765.346 600.092C764.378 600.634 763.404 601.164 762.425 601.684L761.574 601.401C761.603 596.511 762.428 591.568 762.695 586.671C763.146 577.307 763.269 567.931 763.065 558.559C762.907 550.617 762.634 542.601 761.848 534.692C761.131 527.48 759.932 520.275 759.494 513.043Z"/><path fill="#F87567" d="M480.928 22.9827C491.523 22.8432 495.53 33.3323 489.407 41.5211C487.981 43.4294 484.387 43.6011 482.081 43.6205C466.356 41.3219 466.704 27.1865 480.928 22.9827Z"/><path fill="#F89386" d="M753.111 748.919L753.714 749.794C753.478 750.872 753.25 751.952 753.028 753.033C752.635 754.881 752.175 756.599 753.411 758.282C754.973 760.406 758.2 760.879 760.596 761.501C759.366 763.379 757.845 765.416 757.012 767.495C756.252 769.392 756.406 771.11 757.237 772.935C757.628 773.792 757.906 774.226 757.811 775.198L756.777 775.211C753.072 773.924 749.522 772.018 747.11 768.84C745.112 766.206 744.223 762.973 744.762 759.695C745.595 754.625 749.139 751.663 753.111 748.919Z"/><path fill="#F87567" d="M760.37 612.032C761.988 613.856 763.085 615.911 764.28 618.02C764.264 618.131 764.25 618.242 764.232 618.352C763.201 624.518 763.531 630.629 763.118 636.839C757.837 643.186 761.593 645.244 759.192 650.003C758.425 651.523 757.114 652.986 756.062 654.323C755.494 655.247 755.203 655.96 754.156 656.387C753.114 652.049 757.54 634.305 758.391 628.591C759.208 623.101 759.796 617.553 760.37 612.032Z"/><path fill="#F87567" d="M219.214 469.399C219.983 471.275 217.042 484.421 216.532 487.353C214.924 497.435 213.887 507.164 212.441 517.199C211.232 515.616 209.793 513.238 208.679 511.517C209.747 505.6 208.829 500.738 209.631 495.309C210.889 486.791 215.995 477.521 219.214 469.399Z"/><path fill="#F87567" d="M213.29 629.436C213.373 629.508 213.463 629.573 213.539 629.653C213.922 630.05 214.133 630.334 214.349 630.881C214.934 632.362 221.822 670.745 221.831 672.35L221.25 671.77C219.02 669.366 216.697 667.049 215.024 664.208C215.085 664.004 215.152 663.802 215.208 663.597C215.286 663.307 215.35 663.014 215.425 662.723C216.66 657.919 207.251 643.197 213.29 629.436Z"/><path fill="#503434" d="M432.677 84.4039C433.123 87.2161 433.399 89.0742 433.56 91.9353L433.171 92.4723C426.693 101.258 423.536 92.4073 418.301 97.2569C417.014 102.651 426.58 110.122 430.737 112.89C431.435 112.653 432.085 111.771 432.663 111.158C432.917 112.431 433.24 114.412 433.705 115.538L433.259 116.163C432.711 114.765 433.133 114.371 432.213 113.192C423.979 114.815 419.073 108.19 417.714 101.134C416.569 95.1915 417.636 92.9573 418.437 87.2857C418.71 98.1887 432.788 96.954 432.677 84.4039Z"/><path fill="#503434" d="M776.334 363.669C776.596 361.812 776.641 360.978 776.626 359.102L777.614 359.218C778.071 359.938 778.491 360.615 778.926 361.326C782.227 366.726 788.3 370.301 793.46 373.711C793.606 373.808 793.496 375.336 793.331 375.785C792.063 379.245 792.847 379.511 790.125 381.705C787.621 371.904 781.929 372.892 776.334 363.669Z"/><path fill="#F87567" d="M206.639 491.16L207.201 491.236L207.716 491.932C207.71 494.58 206.786 497.163 206.085 499.699C204.203 498.425 202.255 497.294 200.291 496.152L195.867 494.454C199.626 493.662 203.065 492.565 206.639 491.16Z"/><path fill="#F87567" d="M208.46 645.775L208.969 646.057C210.025 648.297 210.101 650.918 210.39 653.355L205.371 650.628C203.678 650.144 201.881 649.919 200.146 649.618C202.999 648.497 205.717 647.136 208.46 645.775Z"/><path fill="#F87567" d="M766.911 628.228C769.079 629.388 772.53 630.088 774.046 632.033L773.659 632.768L770.915 633.46L765.505 635.748L766.911 628.228Z"/><path fill="#F89386" d="M233.734 243.415C235.978 244.197 242.992 248.53 244.358 250.669C245.189 251.971 244.822 252.193 244.578 253.807C242.991 253.991 235.249 245.374 233.734 243.415Z"/><path fill="#F87567" d="M761.712 475.454C763.941 476.114 767.409 476.73 768.934 478.566L768.288 479.53C766.408 480.367 765.12 480.921 763.137 480.33C761.986 478.95 761.945 477.17 761.712 475.454Z"/></svg>